<svg xmlns="http://www.w3.org/2000/svg" viewBox="0 0 400 400"><g><path fill="#d9edff" d="M44.704 202.444a160 160 0 1 0 320 0 160 160 0 1 0-320 0"></path><g stroke="#38a1ff" stroke-linecap="round" stroke-linejoin="round"><path fill="none" d="m200.2 338.54 69.216-26.18M46.644 154.888l58.612 151.548M197.46 48.908l-75.072 41.444m-75.744 64.536 75.744-64.536m137.92-17.044-62.848-24.4m96.924 61.384-34.076-36.984m81.46 53.252-47.384-16.268m26.848 81.912L269.416 312.36m74.528-33.588-74.528 33.588M122.388 90.352l137.92-17.044M121.592 243.352l-16.336 63.084M46.644 154.888l74.948 88.464M200.2 338.54l-78.608-95.188m1.62-81.988 76.988-15.108m60.108-72.948L215.424 223.62m105.808-31.416-26.848-81.912m-78.96 113.328L200.2 146.256l60.108-72.948m9.108 239.052-53.992-88.74" stroke-width="4"></path><path fill="none" d="M215.324 222.972 200.2 338.54l-94.944-32.104" stroke-width="4"></path><path fill="#ffffff" d="M188.848 146.256a11.352 11.352 0 1 0 22.704 0 11.352 11.352 0 1 0-22.704 0" stroke-width="4"></path><path fill="#ffffff" d="m215.424 223.62 78.96-113.328" stroke-width="4"></path><path fill="#ffffff" d="M283.032 110.292a11.352 11.352 0 1 0 22.704 0 11.352 11.352 0 1 0-22.704 0" stroke-width="4"></path><path fill="#ffffff" d="M330.416 126.56a11.352 11.352 0 1 0 22.704 0 11.352 11.352 0 1 0-22.704 0" stroke-width="4"></path><path fill="#ffffff" d="M332.592 278.772a11.352 11.352 0 1 0 22.704 0 11.352 11.352 0 1 0-22.704 0" stroke-width="4"></path><path fill="#ffffff" d="M248.956 73.308a11.352 11.352 0 1 0 22.704 0 11.352 11.352 0 1 0-22.704 0" stroke-width="4"></path><path fill="#ffffff" d="M110.992 90.352a11.352 11.352 0 1 0 22.704 0 11.352 11.352 0 1 0-22.704 0" stroke-width="4"></path><path fill="#ffffff" d="M35.292 155.36a11.352 11.352 0 1 0 22.704 0 11.352 11.352 0 1 0-22.704 0" stroke-width="4"></path><path fill="#ffffff" d="M186.108 48.908a11.352 11.352 0 1 0 22.704 0 11.352 11.352 0 1 0-22.704 0" stroke-width="4"></path><path fill="#ffffff" d="M188.848 338.036a11.352 11.352 0 1 0 22.704 0 11.352 11.352 0 1 0-22.704 0" stroke-width="4"></path><path fill="#ffffff" d="M93.904 306.436a11.352 11.352 0 1 0 22.704 0 11.352 11.352 0 1 0-22.704 0" stroke-width="4"></path><path fill="#ffffff" d="M110.24 243.352a11.352 11.352 0 1 0 22.704 0 11.352 11.352 0 1 0-22.704 0" stroke-width="4"></path><path fill="#ffffff" d="M94.448 153.812a28.764 28.764 0 1 0 57.528 0 28.764 28.764 0 1 0-57.528 0" stroke-width="4"></path><path d="M142.444 175.2a28.768 28.768 0 0 1-38.444 0 20.824 20.824 0 0 1 38.4 0" fill="#b0d9ff" stroke-width="4"></path><path fill="#ffffff" d="M173.16 223.62a42.268 42.268 0 1 0 84.536 0 42.268 42.268 0 1 0-84.536 0" stroke-width="4"></path><path d="M201.828 222.64a13.6 13.6 0 0 0 27.2 0v-6.8a13.6 13.6 0 0 0-27.2 0z" fill="#ffffff" stroke-width="4"></path><path d="M243.68 255.056a42.268 42.268 0 0 1-56.496 0 30.596 30.596 0 0 1 56.464-.048" fill="#b0d9ff" stroke-width="4"></path><path d="M201.94 214.084a13.6 13.6 0 0 1 24.8-5.812 24.772 24.772 0 0 1-24.8 5.812z" fill="#ffffff" stroke-width="4"></path><path fill="#ffffff" d="M292.468 190.132a28.764 28.764 0 1 0 57.528 0 28.764 28.764 0 1 0-57.528 0" stroke-width="4"></path><path d="M311.976 189.464a9.256 9.256 0 1 0 18.512 0v-4.628a9.256 9.256 0 1 0-18.512 0z" fill="#ffffff" stroke-width="4"></path><path d="M340.46 211.524a28.764 28.764 0 0 1-38.448 0 20.824 20.824 0 0 1 38.428-.032" fill="#b0d9ff" stroke-width="4"></path><path d="M312.052 183.64a9.256 9.256 0 0 1 16.868-3.956 16.868 16.868 0 0 1-16.868 3.956z" fill="#ffffff" stroke-width="4"></path><path fill="#ffffff" d="M240.652 312.26a28.764 28.764 0 1 0 57.528 0 28.764 28.764 0 1 0-57.528 0" stroke-width="4"></path><path d="M260.16 311.6a9.256 9.256 0 0 0 18.512 0v-4.632a9.256 9.256 0 0 0-18.512 0z" fill="#ffffff" stroke-width="4"></path><path d="M288.644 333.656a28.776 28.776 0 0 1-38.448 0 20.824 20.824 0 0 1 38.428-.036" fill="#b0d9ff" stroke-width="4"></path><path d="M260.236 305.772a9.256 9.256 0 0 1 16.868-3.956 16.868 16.868 0 0 1-16.868 3.956z" fill="#ffffff" stroke-width="4"></path><path fill="none" d="m210.812 150.284 82.892 31.472m47.36 86.032-13.04-49.7M173.98 231.96l-41.292 8.98M338.38 137.396l-7.968 25.464M142.98 174.708l37.412 25.26m-57.6-74.92-.272-23.348m19.848 30.652 48.836-73.972M94.908 158.972l-36.924-3.128m64.812 26.728-.98 49.432m211.696 42.288-79.232-34" stroke-width="4"></path><path d="M113.96 153.144a9.256 9.256 0 1 0 18.508 0v-4.628a9.256 9.256 0 1 0-18.508 0z" fill="#ffffff" stroke-width="4"></path><path d="M114.036 147.32a9.252 9.252 0 0 1 16.864-3.956 16.852 16.852 0 0 1-16.864 3.956z" fill="#ffffff" stroke-width="4"></path></g></g></svg>