<svg xmlns="http://www.w3.org/2000/svg" fill="none" viewBox="0 0 200 200"><g id="coding-london-200-ico_SxcUfNnYB0LLD4f2"><path id="Vector" fill="#38a1ff" d="M154.3 68.177H56.745v-3.854A4.256 4.256 0 0 1 61 60.068h92a11.546 11.546 0 0 0-.236 2.323v.094H72v3.242h81.176l.078-.022c.257.86.608 1.689 1.046 2.472Z"></path><path id="Vector_2" fill="#ffe8bb" d="M109.819 131.366a3.152 3.152 0 1 1 .002 6.304 3.152 3.152 0 0 1-.002-6.304Z"></path><path id="Vector_3" fill="#ffe8bb" d="M166.676 83.99v36.299c-.748.322-1.475.689-2.178 1.1l-1.643-.556.042-.127V77.091l3.779 6.898Z"></path><path id="Vector_4" fill="#313553" d="M166.676 76.528v7.461l-3.779-6.9v-1.71c1.222.497 2.487.882 3.779 1.149Z"></path><path id="Vector_5" fill="#313553" d="M159.37 140.264h-6.892l3.219-11.493h2.117a11.623 11.623 0 0 0-.842 4.335c.02 2.58.859 5.087 2.398 7.158Z"></path><path id="Vector_6" fill="#ffe8bb" d="m155.7 128.771-3.219 11.493H58.706a5.742 5.742 0 0 1-5.74-5.74v-27.413l3.779-4.827v22.232A4.254 4.254 0 0 0 61 128.771h94.7Zm-42.723 5.746a3.15 3.15 0 0 0-1.945-2.914 3.165 3.165 0 0 0-1.822-.18 3.151 3.151 0 0 0-1.139 5.714 3.153 3.153 0 0 0 4.903-2.62h.003Z"></path><path id="Vector_7" fill="#38a1ff" d="M154.342 78.848a1.669 1.669 0 0 1 1.575 1.018 1.67 1.67 0 0 1-.371 1.838 1.672 1.672 0 0 1-1.204.473H115.97a1.665 1.665 0 0 1-1.634-1.989 1.67 1.67 0 0 1 1.634-1.34h38.372Z"></path><path id="Vector_8" fill="#313553" d="M154.342 85.966a1.663 1.663 0 0 1 1.177 2.842 1.663 1.663 0 0 1-1.177.488H96.556a1.67 1.67 0 0 1-1.666-1.667 1.67 1.67 0 0 1 1.666-1.663h57.786Z"></path><path id="Vector_9" fill="#38a1ff" d="M154.342 93.085a1.667 1.667 0 0 1 1.706 1.665 1.67 1.67 0 0 1-1.056 1.55 1.68 1.68 0 0 1-.65.114h-18.958a1.668 1.668 0 0 1-1.666-1.666 1.668 1.668 0 0 1 1.666-1.663h18.958Z"></path><path id="Vector_10" fill="#313553" d="M154.342 100.2c.442 0 .865.175 1.177.488a1.66 1.66 0 0 1 0 2.354 1.66 1.66 0 0 1-1.177.488H93.321a1.67 1.67 0 0 1-1.667-1.667 1.669 1.669 0 0 1 1.667-1.663h61.021Z"></path><path id="Vector_11" fill="#38a1ff" d="M154.342 107.322a1.669 1.669 0 0 1 1.624 1.665 1.666 1.666 0 0 1-1.624 1.664h-31.9a1.667 1.667 0 0 1-1.667-1.666 1.67 1.67 0 0 1 1.667-1.663h31.9Z"></path><path id="Vector_12" fill="#313553" d="M154.342 114.44a1.68 1.68 0 0 1 1.204.473 1.654 1.654 0 0 1 .502 1.192 1.669 1.669 0 0 1-1.706 1.664h-9.251a1.669 1.669 0 0 1-1.666-1.666 1.666 1.666 0 0 1 1.666-1.663h9.251Z"></path><path id="Vector_13" fill="#38a1ff" d="M154.342 121.558c.442 0 .865.175 1.177.488a1.66 1.66 0 0 1 0 2.354 1.66 1.66 0 0 1-1.177.488h-51.314a1.668 1.668 0 0 1-1.667-1.667 1.668 1.668 0 0 1 1.667-1.663h51.314Z"></path><path id="Vector_14" fill="#313553" d="m154.471 71.742-1.614 3.317h-49.829a1.663 1.663 0 0 1-1.665-1.665 1.662 1.662 0 0 1 1.665-1.665h51.314c.045 0 .084.01.129.013Z"></path><path id="Vector_15" fill="#ffe8bb" d="M58.706 57.311h95.222a12.03 12.03 0 0 0-.928 2.757H61a4.256 4.256 0 0 0-4.255 4.255v13.583a19.144 19.144 0 0 0-3.779-2.181V63.051a5.741 5.741 0 0 1 5.74-5.74Z"></path><path id="Vector_16" fill="#313553" d="m153.255 65.705-.078.022H72v-3.242h80.768c.006 1.091.17 2.176.487 3.22Z"></path><path id="Vector_17" fill="#38a1ff" d="M135.9 114.44a1.669 1.669 0 0 1 1.624 1.664 1.666 1.666 0 0 1-1.624 1.665H71.642a1.667 1.667 0 0 1-1.666-1.666 1.67 1.67 0 0 1 1.666-1.663H135.9Z"></path><path id="Vector_18" fill="#313553" d="M126.192 93.085a1.667 1.667 0 0 1 1.624 1.665 1.667 1.667 0 0 1-1.624 1.664h-54.55a1.666 1.666 0 0 1-1.177-2.842 1.666 1.666 0 0 1 1.177-.487h54.55Z"></path><path id="Vector_19" fill="#ffe8bb" d="m122.215 148.518 1.366 6.021h-27.52l3.236-14.275 22.918 8.254Z"></path><path id="Vector_20" fill="#313553" d="m120.345 140.264 1.87 8.254-22.918-8.254h21.048Z"></path><path id="Vector_21" fill="#313553" d="M113.249 107.322a1.669 1.669 0 0 1 1.624 1.665 1.666 1.666 0 0 1-1.624 1.664H71.642a1.667 1.667 0 0 1-1.666-1.666 1.667 1.667 0 0 1 1.666-1.663h41.607Z"></path><path id="Vector_22" fill="#313553" d="M106.778 78.848a1.669 1.669 0 0 1 1.575 1.018 1.67 1.67 0 0 1-.371 1.838 1.672 1.672 0 0 1-1.204.473H71.642a1.664 1.664 0 1 1 0-3.329h35.136Z"></path><path id="Vector_23" fill="#38a1ff" d="M93.835 71.729a1.665 1.665 0 1 1 0 3.33H71.642a1.667 1.667 0 0 1-1.666-1.666 1.668 1.668 0 0 1 1.666-1.664h22.193Z"></path><path id="Vector_24" fill="#313553" d="M93.835 121.558a1.662 1.662 0 0 1 1.665 1.665 1.663 1.663 0 0 1-1.665 1.665H71.642a1.668 1.668 0 0 1-1.666-1.667 1.67 1.67 0 0 1 1.666-1.663h22.193Z"></path><path id="Vector_25" fill="#38a1ff" d="M87.364 85.966a1.665 1.665 0 0 1 0 3.33H71.642a1.669 1.669 0 0 1-1.666-1.667 1.668 1.668 0 0 1 1.666-1.663h15.722Z"></path><path id="Vector_26" fill="#38a1ff" d="M84.128 100.2a1.662 1.662 0 0 1 1.665 1.665 1.663 1.663 0 0 1-1.665 1.665H71.642a1.668 1.668 0 0 1-1.666-1.667 1.666 1.666 0 0 1 1.666-1.663h12.486Z"></path><path id="Vector_27" fill="#313553" d="M62.382 86.478a1.229 1.229 0 0 1 .174 2.222v-.21c0-.165 0-.33-.013-.495v-.039c-.021-.496-.075-.99-.161-1.478Z"></path><path id="Vector_28" fill="#313553" d="M61.942 72.153a1.24 1.24 0 1 1 .008 2.48 1.24 1.24 0 0 1-.008-2.48Z"></path><path id="Vector_29" fill="#313553" d="M61.942 79.272a1.239 1.239 0 1 1 .006 2.478 1.239 1.239 0 0 1-.006-2.478Z"></path><path id="Vector_30" fill="#313553" d="M61.942 93.509a1.239 1.239 0 1 1 0 2.478 1.256 1.256 0 0 1-1.172-.89l-.17-.107c.292-.454.555-.926.786-1.413l.055.025c.103-.102.416-.093.501-.093Z"></path><path id="Vector_31" fill="#313553" d="M61.942 107.745a1.237 1.237 0 0 1 1.148.763 1.239 1.239 0 1 1-1.148-.763Z"></path><path id="Vector_32" fill="#313553" d="M61.942 114.864a1.242 1.242 0 0 1 1.147.763 1.237 1.237 0 0 1-.901 1.691 1.237 1.237 0 0 1-1.482-1.215 1.239 1.239 0 0 1 1.236-1.239Z"></path><path id="Vector_33" fill="#313553" d="M61.942 121.982a1.237 1.237 0 0 1 1.148.763 1.239 1.239 0 1 1-1.148-.763Z"></path><path id="Vector_34" fill="#313553" d="m55.033 100.206 1.8.851-.091.194v1.033l-3.779 4.827v-5.86a19.02 19.02 0 0 0 2.07-1.045Z"></path><path id="Vector_35" fill="#313553" d="m48.873 102.581.035.159c-1.672 3.792-3.8 7.555-6.293 9.649a59.828 59.828 0 0 0-2.336 2.064 713.611 713.611 0 0 0-.877-11.713c1.434.261 2.889.392 4.346.391a23.805 23.805 0 0 0 5.125-.55Z"></path><path id="Vector_36" fill="#38a1ff" d="M37.15 121.536a9.899 9.899 0 0 1 2.767-3.718c.184-.142.368-.285.556-.421a40.696 40.696 0 0 1 9.62-5c-.091.194-3.566 7.555-6.9 10.367-.773.65-1.547 1.233-2.278 1.8a20.014 20.014 0 0 0-2.1 1.841 7.554 7.554 0 0 0-2.255 5.472v.165h-1.426v-.165c.018-1.744.18-3.483.486-5.2.29-1.771.805-3.499 1.53-5.141Z"></path><path id="Vector_37" fill="#313553" d="M41.269 131.877v.165h-1.734a34.096 34.096 0 0 0-.725-5.637 20.034 20.034 0 0 1 2.1-1.841c.223 3.754.359 6.562.359 7.313Z"></path><path id="Vector_38" fill="#38a1ff" d="M40.473 117.394c-.188.139-.372.282-.556.424a9.9 9.9 0 0 0-2.767 3.718c-.385-.6-.861-1.265-1.411-2.006-1.278-1.728-2.934-3.831-4.633-6.168a64.934 64.934 0 0 1-5.462-8.665l-.026-.045a37.826 37.826 0 0 1-.682-1.427c-7.077-15.609-2.492-31.172-2.492-31.172a74.08 74.08 0 0 1 6.814 7.1 12.817 12.817 0 0 0-4.322 9.338c0 6.921 6.17 12.723 14.466 14.25.291 3.394.595 7.578.877 11.713.065.986.133 1.969.194 2.94Z"></path><path id="Vector_39" fill="#313553" d="M34.924 120.759s.531 3.161.7 5.915a31.573 31.573 0 0 0-.486 5.2v.165h-1.421v-.165c.5-3.346-.013-7.112 0-8.892a22.4 22.4 0 0 1 1.207-2.223Z"></path><path id="Vector_40" fill="#38a1ff" d="M35.739 119.53a22.545 22.545 0 0 0-2.022 3.452 21.885 21.885 0 0 0-2.022 9.041v.016h-.57a55.795 55.795 0 0 0-1.071-10.339c.327-1.712.5-3.653.709-5.634.094-.893.194-1.795.317-2.685l.026-.02c1.699 2.339 3.355 4.439 4.633 6.169Z"></path><path id="Vector_41" fill="#38a1ff" d="M31.125 132.042h-2.52c-.165-8.575-5.963-11.283-11.768-16.175-6-5.051-12.244-18.385-12.244-18.385a71.48 71.48 0 0 1 17.524 9.228c.168.142.343.276.524.4 4.2 3.294 6.339 9.248 7.413 14.59a55.784 55.784 0 0 1 1.071 10.342Z"></path><path id="Vector_42" fill="#313553" d="m31.106 113.362-.026.02c-.123.89-.223 1.792-.317 2.685-.576-3.821-3.637-5.853-8.121-8.956-.175-.136-.347-.272-.525-.4-4.067-3.41-5.338-11.729-5.338-11.729 4.656 2.737 8.49 9.082 8.839 9.671l.026.045a64.987 64.987 0 0 0 5.462 8.664Z"></path><path id="Vector_43" stroke="#313553" stroke-linecap="round" stroke-linejoin="round" stroke-width=".647" d="M52.966 101.251c.71-.306 1.4-.655 2.067-1.045l1.8.851 8.8 4.142-5.7-9.244c.239-.314.466-.634.673-.965.292-.454.555-.926.786-1.414a11.692 11.692 0 0 0 1.164-4.876v-.21c0-.165 0-.33-.013-.495"></path><path id="Vector_44" stroke="#313553" stroke-linecap="round" stroke-linejoin="round" stroke-width=".647" d="M62.547 87.956c-.023-.496-.078-.99-.165-1.478a13.845 13.845 0 0 0-5.637-8.572 19.134 19.134 0 0 0-3.779-2.18 22.932 22.932 0 0 0-9.218-1.877 21.226 21.226 0 0 0-14.49 5.3 12.818 12.818 0 0 0-4.322 9.338c0 6.921 6.17 12.723 14.466 14.25 1.434.261 2.889.392 4.346.391a23.805 23.805 0 0 0 5.125-.55 21.961 21.961 0 0 0 4.093-1.326"></path><path id="Vector_45" stroke="#313553" stroke-linecap="round" stroke-linejoin="round" stroke-width=".647" d="m154.474 71.742.919-1.89a13.648 13.648 0 0 1-1.1-1.675 12.182 12.182 0 0 1-1.041-2.472 11.333 11.333 0 0 1-.486-3.22v-.094c0-.78.078-1.559.234-2.323a12.03 12.03 0 0 1 .926-2.757c2.653-5.584 9.554-9.564 17.65-9.564 10.386 0 18.809 6.555 18.809 14.644s-8.423 14.642-18.809 14.642a23.5 23.5 0 0 1-4.9-.508 21.412 21.412 0 0 1-3.779-1.146 19.781 19.781 0 0 1-2.6-1.275l-8.8 3.754 1.366-2.8 1.617-3.317"></path><path id="Vector_46" stroke="#313553" stroke-linecap="round" stroke-linejoin="round" stroke-width=".647" d="m162.855 120.834-5.627-1.906 2.372 6.714a13.152 13.152 0 0 0-1.786 3.129 11.626 11.626 0 0 0-.842 4.335 12.16 12.16 0 0 0 2.4 7.158c3.219 4.465 9.364 7.484 16.414 7.484 10.387 0 18.809-6.556 18.809-14.642 0-8.086-8.422-14.641-18.809-14.641a23.016 23.016 0 0 0-9.108 1.828c-.748.322-1.475.689-2.178 1.1l-1.645-.559Z"></path><path id="Vector_47" stroke="#313553" stroke-linecap="round" stroke-linejoin="round" stroke-width=".647" d="M52.966 75.725V63.051a5.74 5.74 0 0 1 5.74-5.74h95.222"></path><path id="Vector_48" stroke="#313553" stroke-linecap="round" stroke-linejoin="round" stroke-width=".647" d="M99.3 140.264H58.706a5.742 5.742 0 0 1-5.74-5.74v-33.273"></path><path id="Vector_49" stroke="#313553" stroke-linecap="round" stroke-linejoin="round" stroke-width=".647" d="M159.37 140.264h-39.025"></path><path id="Vector_50" stroke="#313553" stroke-linecap="round" stroke-linejoin="round" stroke-width=".647" d="M166.676 76.528v43.765"></path><path id="Vector_51" stroke="#313553" stroke-linecap="round" stroke-linejoin="round" stroke-width=".647" d="M56.745 77.91V64.323A4.256 4.256 0 0 1 61 60.068h92"></path><path id="Vector_52" stroke="#313553" stroke-linecap="round" stroke-linejoin="round" stroke-width=".647" d="M157.814 128.771H61a4.255 4.255 0 0 1-4.255-4.255v-23.265"></path><path id="Vector_53" stroke="#313553" stroke-linecap="round" stroke-linejoin="round" stroke-width=".647" d="M162.897 75.383v45.324"></path><path id="Vector_54" stroke="#313553" stroke-linecap="round" stroke-linejoin="round" stroke-width=".647" d="M56.745 68.177h97.551"></path><path id="Vector_55" stroke="#313553" stroke-linecap="round" stroke-linejoin="round" stroke-width=".647" d="M153.177 65.727H72.001v-3.242h80.739"></path><path id="Vector_56" stroke="#313553" stroke-linecap="round" stroke-linejoin="round" stroke-width=".647" d="M112.974 134.517a3.156 3.156 0 0 1-1.945 2.914 3.153 3.153 0 1 1 1.945-2.914v0Z"></path><path id="Vector_57" stroke="#313553" stroke-linecap="round" stroke-linejoin="round" stroke-width=".647" d="m96.061 154.539 3.236-14.275h21.048l1.87 8.254 1.366 6.021"></path><path id="Vector_58" stroke="#313553" stroke-linecap="round" stroke-linejoin="round" stroke-width=".647" d="M121.652 154.539H98.815"></path><path id="Vector_59" stroke="#313553" stroke-linecap="round" stroke-linejoin="round" stroke-width=".647" d="m99.297 140.264 22.918 8.254"></path><path id="Vector_60" stroke="#313553" stroke-linecap="round" stroke-linejoin="round" stroke-width=".647" d="M87.354 154.539h4.99"></path><path id="Vector_61" stroke="#313553" stroke-linecap="round" stroke-linejoin="round" stroke-width=".647" d="M93.826 154.539h4.989"></path><path id="Vector_62" stroke="#313553" stroke-linecap="round" stroke-linejoin="round" stroke-width=".647" d="M16.17 154.539h4.99"></path><path id="Vector_63" stroke="#313553" stroke-linecap="round" stroke-linejoin="round" stroke-width=".647" d="M40.651 154.539h12.865"></path><path id="Vector_64" stroke="#313553" stroke-linecap="round" stroke-linejoin="round" stroke-width=".647" d="M22.642 154.539h6.749"></path><path id="Vector_65" stroke="#313553" stroke-linecap="round" stroke-linejoin="round" stroke-width=".647" d="M121.652 154.539h4.989"></path><path id="Vector_66" stroke="#313553" stroke-linecap="round" stroke-linejoin="round" stroke-width=".647" d="M128.123 154.539h4.99"></path><path id="Vector_67" stroke="#313553" stroke-linecap="round" stroke-linejoin="round" stroke-width=".647" d="m65.753 66.103 3.31-1.909-3.31-1.913"></path><path id="Vector_68" stroke="#313553" stroke-linecap="round" stroke-linejoin="round" stroke-width=".647" d="m63.614 62.281-3.313 1.913 3.313 1.909"></path><path id="Vector_69" stroke="#313553" stroke-linecap="round" stroke-linejoin="round" stroke-width=".647" d="m162.897 77.091 3.779 6.898"></path><path id="Vector_70" stroke="#313553" stroke-linecap="round" stroke-linejoin="round" stroke-width=".647" d="m155.697 128.771-3.219 11.493"></path><path id="Vector_71" stroke="#313553" stroke-linecap="round" stroke-linejoin="round" stroke-width=".647" d="m56.745 102.284-3.779 4.827"></path><path id="Vector_72" stroke="#313553" stroke-linecap="round" stroke-linejoin="round" stroke-width=".647" d="M40.651 154.539h-11.26a6.748 6.748 0 0 1-6.749-6.749v-15.748H47.4v15.748a6.75 6.75 0 0 1-6.749 6.749v0Z"></path><path id="Vector_73" stroke="#313553" stroke-linecap="round" stroke-linejoin="round" stroke-width=".647" d="M31.125 132.042a55.784 55.784 0 0 0-1.071-10.342c-1.074-5.342-3.213-11.3-7.412-14.59-.175-.136-.347-.272-.525-.4a71.48 71.48 0 0 0-17.524-9.228s6.245 13.334 12.244 18.385c5.805 4.892 11.6 7.6 11.768 16.175"></path><path id="Vector_74" stroke="#313553" stroke-linecap="round" stroke-linejoin="round" stroke-width=".647" d="M33.717 122.985a21.885 21.885 0 0 0-2.022 9.041"></path><path id="Vector_75" stroke="#313553" stroke-linecap="round" stroke-linejoin="round" stroke-width=".647" d="M35.739 119.53a22.524 22.524 0 0 0-2.022 3.452"></path><path id="Vector_76" stroke="#313553" stroke-linecap="round" stroke-linejoin="round" stroke-width=".647" d="M48.908 102.74c-1.672 3.792-3.8 7.555-6.293 9.649a59.901 59.901 0 0 0-2.336 2.064"></path><path id="Vector_77" stroke="#313553" stroke-linecap="round" stroke-linejoin="round" stroke-width=".647" d="M30.054 121.7c.327-1.712.5-3.653.709-5.634.094-.893.194-1.795.317-2.685"></path><path id="Vector_78" stroke="#313553" stroke-linecap="round" stroke-linejoin="round" stroke-width=".647" d="M50.1 112.389c-.094.2-3.569 7.558-6.9 10.37-.773.65-1.547 1.233-2.278 1.8a20.034 20.034 0 0 0-2.1 1.841 7.557 7.557 0 0 0-2.255 5.472"></path><path id="Vector_79" stroke="#313553" stroke-linecap="round" stroke-linejoin="round" stroke-width=".647" d="M40.473 117.394a40.696 40.696 0 0 1 9.62-5"></path><path id="Vector_80" stroke="#313553" stroke-linecap="round" stroke-linejoin="round" stroke-width=".647" d="M35.134 131.877c.018-1.744.18-3.483.486-5.2.291-1.77.805-3.497 1.53-5.138a9.899 9.899 0 0 1 2.767-3.718c.184-.142.368-.285.556-.421"></path><path id="Vector_81" stroke="#313553" stroke-linecap="round" stroke-linejoin="round" stroke-width=".647" d="M38.81 126.405c.398 1.856.64 3.741.725 5.637"></path><path id="Vector_82" stroke="#313553" stroke-linecap="round" stroke-linejoin="round" stroke-width=".647" d="M25.644 104.7a64.934 64.934 0 0 0 5.462 8.665c1.7 2.337 3.355 4.44 4.633 6.168.55.741 1.026 1.41 1.411 2.006"></path><path id="Vector_83" stroke="#313553" stroke-linecap="round" stroke-linejoin="round" stroke-width=".647" d="M29.258 79.152a74.08 74.08 0 0 0-6.814-7.1s-4.585 15.563 2.492 31.172c.216.479.443.951.682 1.427"></path><path id="Vector_84" stroke="#313553" stroke-linecap="round" stroke-linejoin="round" stroke-width=".647" d="M40.473 117.4c-.061-.974-.129-1.957-.194-2.944a713.611 713.611 0 0 0-.877-11.713"></path><path id="Vector_85" stroke="#313553" stroke-linecap="round" stroke-linejoin="round" stroke-width=".647" d="M41.269 131.877c0-.751-.136-3.559-.356-7.313"></path><path id="Vector_86" stroke="#313553" stroke-linecap="round" stroke-linejoin="round" stroke-width=".647" d="m25.644 104.7-.026-.045c-.349-.589-4.183-6.934-8.839-9.671 0 0 1.271 8.319 5.338 11.729.168.142.343.276.525.4 4.484 3.1 7.545 5.135 8.121 8.956"></path><path id="Vector_87" stroke="#313553" stroke-linecap="round" stroke-linejoin="round" stroke-width=".647" d="M33.717 122.982c-.013 1.78.5 5.546 0 8.892"></path><path id="Vector_88" stroke="#313553" stroke-linecap="round" stroke-linejoin="round" stroke-width=".647" d="M34.924 120.759s.531 3.161.7 5.915"></path><path id="Vector_89" stroke="#313553" stroke-linecap="round" stroke-linejoin="round" stroke-width=".647" d="M67.407 70.49v54.721"></path><path id="Vector_90" stroke="#313553" stroke-linecap="round" stroke-linejoin="round" stroke-width=".647" d="M93.835 75.059H71.642a1.667 1.667 0 0 1-1.666-1.666 1.668 1.668 0 0 1 1.666-1.664h22.193a1.665 1.665 0 1 1 0 3.33v0Z"></path><path id="Vector_91" stroke="#313553" stroke-linecap="round" stroke-linejoin="round" stroke-width=".647" d="M154.474 71.742c-.048 0-.087-.013-.132-.013h-51.314a1.663 1.663 0 0 0-1.665 1.665 1.662 1.662 0 0 0 1.665 1.665h49.829l1.617-3.317Z"></path><path id="Vector_92" stroke="#313553" stroke-linecap="round" stroke-linejoin="round" stroke-width=".647" d="M63.181 73.393a1.238 1.238 0 1 1-2.476-.004 1.238 1.238 0 0 1 2.476.004Z"></path><path id="Vector_93" stroke="#313553" stroke-linecap="round" stroke-linejoin="round" stroke-width=".647" d="M106.778 82.177H71.642a1.664 1.664 0 1 1 0-3.329h35.136a1.669 1.669 0 0 1 1.575 1.018 1.67 1.67 0 0 1-.371 1.838 1.672 1.672 0 0 1-1.204.473v0Z"></path><path id="Vector_94" stroke="#313553" stroke-linecap="round" stroke-linejoin="round" stroke-width=".647" d="M154.342 82.177H115.97a1.665 1.665 0 0 1-1.634-1.989 1.67 1.67 0 0 1 1.634-1.34h38.372a1.669 1.669 0 0 1 1.575 1.018 1.67 1.67 0 0 1-.371 1.838 1.672 1.672 0 0 1-1.204.473v0Z"></path><path id="Vector_95" stroke="#313553" stroke-linecap="round" stroke-linejoin="round" stroke-width=".647" d="M63.181 80.511a1.238 1.238 0 1 1-2.476-.002 1.238 1.238 0 0 1 2.476.002v0Z"></path><path id="Vector_96" stroke="#313553" stroke-linecap="round" stroke-linejoin="round" stroke-width=".647" d="M87.364 89.3H71.642a1.669 1.669 0 0 1-1.666-1.667 1.668 1.668 0 0 1 1.666-1.663h15.722a1.665 1.665 0 0 1 0 3.33v0Z"></path><path id="Vector_97" stroke="#313553" stroke-linecap="round" stroke-linejoin="round" stroke-width=".647" d="M154.342 89.3H96.556a1.669 1.669 0 0 1-1.666-1.667 1.67 1.67 0 0 1 1.666-1.663h57.786a1.663 1.663 0 0 1 1.177 2.842 1.663 1.663 0 0 1-1.177.488v0Z"></path><path id="Vector_98" stroke="#313553" stroke-linecap="round" stroke-linejoin="round" stroke-width=".647" d="M62.56 88.49c0 .071 0 .142-.007.21a1.229 1.229 0 0 0-.174-2.222h-.007c.089.49.146.985.172 1.482V88c.012.16.016.325.016.49Z"></path><path id="Vector_99" stroke="#313553" stroke-linecap="round" stroke-linejoin="round" stroke-width=".647" d="M126.192 96.414h-54.55a1.666 1.666 0 0 1-1.177-2.842 1.666 1.666 0 0 1 1.177-.487h54.55a1.667 1.667 0 0 1 1.624 1.665 1.667 1.667 0 0 1-1.624 1.664v0Z"></path><path id="Vector_100" stroke="#313553" stroke-linecap="round" stroke-linejoin="round" stroke-width=".647" d="M154.342 96.414h-18.958a1.668 1.668 0 0 1-1.666-1.666 1.668 1.668 0 0 1 1.666-1.663h18.958a1.667 1.667 0 0 1 1.706 1.665 1.67 1.67 0 0 1-1.056 1.55 1.68 1.68 0 0 1-.65.114v0Z"></path><path id="Vector_101" stroke="#313553" stroke-linecap="round" stroke-linejoin="round" stroke-width=".647" d="M61.443 93.6c.1-.1.414-.093.5-.093a1.239 1.239 0 1 1 0 2.478 1.256 1.256 0 0 1-1.172-.89"></path><path id="Vector_102" stroke="#313553" stroke-linecap="round" stroke-linejoin="round" stroke-width=".647" d="M84.128 103.533H71.642a1.668 1.668 0 0 1-1.666-1.667 1.67 1.67 0 0 1 1.666-1.663h12.486a1.662 1.662 0 0 1 1.665 1.665 1.663 1.663 0 0 1-1.665 1.665v0Z"></path><path id="Vector_103" stroke="#313553" stroke-linecap="round" stroke-linejoin="round" stroke-width=".647" d="M154.342 103.533H93.321a1.67 1.67 0 0 1-1.667-1.667 1.669 1.669 0 0 1 1.667-1.663h61.021c.442 0 .865.175 1.177.488a1.66 1.66 0 0 1 0 2.354 1.66 1.66 0 0 1-1.177.488v0Z"></path><path id="Vector_104" stroke="#313553" stroke-linecap="round" stroke-linejoin="round" stroke-width=".647" d="M113.249 110.651H71.642a1.667 1.667 0 0 1-1.666-1.666 1.667 1.667 0 0 1 1.666-1.663h41.607a1.669 1.669 0 0 1 1.624 1.665 1.666 1.666 0 0 1-1.624 1.664v0Z"></path><path id="Vector_105" stroke="#313553" stroke-linecap="round" stroke-linejoin="round" stroke-width=".647" d="M154.342 110.651h-31.9a1.667 1.667 0 0 1-1.667-1.666 1.67 1.67 0 0 1 1.667-1.663h31.9a1.669 1.669 0 0 1 1.624 1.665 1.666 1.666 0 0 1-1.624 1.664v0Z"></path><path id="Vector_106" stroke="#313553" stroke-linecap="round" stroke-linejoin="round" stroke-width=".647" d="M63.181 108.985a1.236 1.236 0 0 1-2.114.873 1.238 1.238 0 1 1 2.114-.873v0Z"></path><path id="Vector_107" stroke="#313553" stroke-linecap="round" stroke-linejoin="round" stroke-width=".647" d="M135.9 117.769H71.642a1.667 1.667 0 0 1-1.666-1.666 1.67 1.67 0 0 1 1.666-1.663H135.9a1.669 1.669 0 0 1 1.624 1.664 1.666 1.666 0 0 1-1.624 1.665v0Z"></path><path id="Vector_108" stroke="#313553" stroke-linecap="round" stroke-linejoin="round" stroke-width=".647" d="M154.342 117.769h-9.251a1.669 1.669 0 0 1-1.666-1.666 1.666 1.666 0 0 1 1.666-1.663h9.251a1.68 1.68 0 0 1 1.204.473 1.654 1.654 0 0 1 .502 1.192 1.669 1.669 0 0 1-1.706 1.664v0Z"></path><path id="Vector_109" stroke="#313553" stroke-linecap="round" stroke-linejoin="round" stroke-width=".647" d="M63.181 116.1a1.235 1.235 0 0 1-.765 1.143 1.233 1.233 0 0 1-1.348-.269 1.236 1.236 0 0 1 .187-1.904 1.237 1.237 0 0 1 1.926 1.03v0Z"></path><path id="Vector_110" stroke="#313553" stroke-linecap="round" stroke-linejoin="round" stroke-width=".647" d="M93.835 124.888H71.642a1.668 1.668 0 0 1-1.666-1.667 1.67 1.67 0 0 1 1.666-1.663h22.193a1.662 1.662 0 0 1 1.665 1.665 1.663 1.663 0 0 1-1.665 1.665Z"></path><path id="Vector_111" stroke="#313553" stroke-linecap="round" stroke-linejoin="round" stroke-width=".647" d="M154.342 124.888h-51.314a1.668 1.668 0 0 1-1.667-1.667 1.668 1.668 0 0 1 1.667-1.663h51.314c.442 0 .865.175 1.177.488a1.66 1.66 0 0 1 0 2.354 1.66 1.66 0 0 1-1.177.488Z"></path><path id="Vector_112" stroke="#313553" stroke-linecap="round" stroke-linejoin="round" stroke-width=".647" d="M63.181 123.221a1.235 1.235 0 0 1-.765 1.143 1.233 1.233 0 0 1-1.348-.269 1.236 1.236 0 0 1 .187-1.904 1.237 1.237 0 0 1 1.926 1.03v0Z"></path><path id="Vector_113" stroke="#313553" stroke-linecap="round" stroke-linejoin="round" stroke-width=".971" d="M39.706 88.412h-.236a4.612 4.612 0 0 1 .236-9.218"></path><path id="Vector_114" stroke="#313553" stroke-linecap="round" stroke-linejoin="round" stroke-width=".971" d="M33.157 88.406h6.549-.116a4.612 4.612 0 0 0 .116 9.222"></path><path id="Vector_115" stroke="#313553" stroke-linecap="round" stroke-linejoin="round" stroke-width=".971" d="M47.986 88.412h.236a4.612 4.612 0 0 0-.236-9.218"></path><path id="Vector_116" stroke="#313553" stroke-linecap="round" stroke-linejoin="round" stroke-width=".971" d="M54.535 88.406h-6.549.12a4.612 4.612 0 0 1-.12 9.222"></path><path id="Vector_117" stroke="#313553" stroke-linecap="round" stroke-linejoin="round" stroke-width=".971" d="m175.548 67.785 8.791-5.073-8.791-5.077"></path><path id="Vector_118" stroke="#313553" stroke-linecap="round" stroke-linejoin="round" stroke-width=".971" d="m166.524 57.635-8.791 5.077 8.791 5.073"></path><path id="Vector_119" stroke="#313553" stroke-linecap="round" stroke-linejoin="round" stroke-width=".647" d="m173.539 55.34-5.255 14.668"></path><path id="Vector_120" stroke="#313553" stroke-linecap="round" stroke-linejoin="round" stroke-width=".971" d="m165.757 139.144 1.424-4.323 3.378-10.257 3.381 10.257 1.424 4.323"></path><path id="Vector_121" stroke="#313553" stroke-linecap="round" stroke-linejoin="round" stroke-width=".971" d="M167.181 134.821h6.759"></path><path id="Vector_122" stroke="#313553" stroke-linecap="round" stroke-linejoin="round" stroke-width=".647" d="M182.679 136.627c-.928 1.99-2.666 3.145-3.876 2.582-1.21-.563-1.436-2.637-.508-4.63.928-1.993 2.663-3.145 3.876-2.582.373.229.673.56.864.954.192.393.267.833.217 1.268a5.79 5.79 0 0 1-.573 2.408v0Z"></path><path id="Vector_123" stroke="#313553" stroke-linecap="round" stroke-linejoin="round" stroke-width=".647" d="M183.249 134.19v.029c.178 1.751-.893 6.362 1.9 4.485"></path></g></svg>