<svg xmlns="http://www.w3.org/2000/svg" viewBox="0 0 200 200"><defs></defs><path d="M106.008 124.881c16.363-.83 31.354-1.206 33.771.149 1.245.7 3.182 9.9 4.072 16.053 5.026-.6 11.342-1.152 17.652-1.582-.937-4.734-1.515-7.7-3.641-12.274-.322-.693.56-.973.919-.34a38.048 38.048 0 0 1 4.227 12.536c8.543-.561 16.972-.9 22.255-.9-.6-5.17-3.923-17.084-9.88-23.193-4.592-4.709-13.5-8.9-21.384-9.892a5.984 5.984 0 0 1-3.82 4.925c-4.212 1.655-11.9 2.09-18.758-1.677-7.235 2.064-20.494 9.938-25.413 16.195Z" fill="#38a1ff"></path><path d="M194.206 161.679c-43.143.811-86.091.651-129.211.7-.872 0-1.069 1.363-.167 1.379 43.023.795 86.559-.141 129.575-.668.919-.008.717-1.428-.197-1.411Z" fill="#38a1ff"></path><path d="M87.979 76.436c4.429.083 26.014-.319 28.309-.418.692-.03.674-1.224 0-1.224-3.081 0-23.351.391-28.309.651a.5.5 0 0 0 0 .991Z" fill="#38a1ff"></path><path d="M70.3 70.907c-.322.168-5.891 6.862-3.325 6.066.364-.113 4-4.72 4.179-5.546a.532.532 0 0 0-.854-.52Z" fill="#38a1ff"></path><path d="M58.165 55.7c1.791.084 38.26-.007 40.434-.221a1.257 1.257 0 0 0-.077-2.5c-10.149.126-31.247.178-40.3.376-1.358.031-1.472 2.281-.057 2.345Z" fill="#38a1ff"></path><path d="M109.214 94.184c-2.347 0-20.192-.2-21.456.161-.43.124-.6.82-.084.967 1.348.387 19.1.191 21.551.191s4.83.088 7.23 0c.734-.027.68-1.257-.048-1.289-2.388-.106-4.8-.03-7.193-.03Z" fill="#38a1ff"></path><path d="M87.477 103.527a.6.6 0 0 0-.406.74c.206.7-.719.46 29.694.967a.681.681 0 0 0 0-1.355c-29.176-.471-27.365-.501-29.288-.352Z" fill="#38a1ff"></path><path d="M116.115 86.19a.657.657 0 0 0 .041-1.307c-4.34-.12-24.536-.288-28.2.442-.6.119-.466.993.107 1.044 3.099.279 7.837-.762 28.052-.179Z" fill="#38a1ff"></path><path d="M142.788 68.424c.054-8.614.454-19.36-.269-27.718a.514.514 0 0 0-1.021.054c-.235 4.01-.014 22.642 0 27.76.002.841 1.285.746 1.29-.096Z" fill="#38a1ff"></path><path d="M67.323 108.332a47.123 47.123 0 0 0 3.946 3.845c.6.565 1.524-.336.92-.9a53.437 53.437 0 0 0-4.078-3.7c-.433-.277-1.122.29-.788.755Z" fill="#38a1ff"></path><path d="M11.9 40.706c0-.752-1.184-.889-1.194-.119-.394 31.856.132 68.909 1.654 100.6.042.878 1.4.663 1.355-.209-1.608-33.523-1.861-66.721-1.815-100.272Z" fill="#38a1ff"></path><path d="M26.943 111.789c-.336.5.443 1.136.836.669.507-.6 3.447-4.007 3.3-4.74-.405-1.942-3.562 3.222-4.136 4.071Z" fill="#38a1ff"></path><path d="M48.942 95.629c-.513-.095-3.767 2.793-4.424 3.42-6.143-4.017-5.532-3.028-5.456-.6a44.783 44.783 0 0 0 .346 4.967c.075.521.867.43.9-.077.125-1.857-.114-3.708-.144-5.564 5.409 3.3 3.737 3.2 8.788-.938.6.663 3.457 3.443 4.322 3.338.7-.087 3.057-3.254 3.618-3.929 0 1.433.046 5.523.471 6.681.22.6.8.388.83-.209.074-1.272-.08-4.287-.077-5.755 0-1.672-.005-2.1-.705-3.1-1.52-2.172-5.37-7.493-7.719-10.381-2.069-2.545-2.16-2.6-3.612-.352-2.237 3.469-5.992 10.2-6.566 11.48-.243.539.588.793.877.394.962-1.329 3.14-5.236 4.143-6.955a59.63 59.63 0 0 0 6.764-.114 116.92 116.92 0 0 1 5.3 6.8l-3.444 4.179c-.469-.372-3.693-3.189-4.212-3.285Z" fill="#38a1ff"></path><path d="M66.171 140.4c-5.373-.3-49.126-.065-50.833.2a.6.6 0 0 0 .065 1.159c16.543.047 34.1-.084 50.672-.066.806 0 .944-1.243.096-1.293Z" fill="#38a1ff"></path><path d="M29.051 78.483c.592.661 1.5-.167 1.008-.728-1.194-1.355-3.752-4.432-4.931-5.468-.467-.411-1.1.232-.77.722.848 1.265 3.524 4.17 4.693 5.474Z" fill="#38a1ff"></path><path d="M48.3 72.6a44.249 44.249 0 0 0-.459-7.761.55.55 0 0 0-1 .1 48.832 48.832 0 0 0 .376 7.76.549.549 0 0 0 1.083-.099Z" fill="#38a1ff"></path><path d="M49.175 111.317c0 .83-.221 6.34.077 7.063a.6.6 0 0 0 1.039 0c.311-.794-.042-5.97-.083-7.063-.054-.585-1.033-.597-1.033 0Z" fill="#38a1ff"></path><path d="M24.155 93.241C36.3 70.4 63.984 72.8 74.165 91.39c-12.028 18.357-35.592 21.136-50.065 3.486-.452-.55-1.011.153-.6.729 12.724 17.7 39.911 15.39 51.137-2.5a2.782 2.782 0 0 0 .173-3.247C62.465 68.716 31.547 72.519 23.319 92.7c-.245.6.543 1.093.836.541Z" fill="#38a1ff"></path><path d="M134.854 70.042c-3.128.6-5.887 7.433-2.436 10.632 2.113 1.959 11.844 2.042 17.743 1.791a6.949 6.949 0 0 0 .459 2.107c.235.6.939.79.764-.292a11.166 11.166 0 0 1-.131-1.863 46.956 46.956 0 0 0 2.746-.2 38.225 38.225 0 0 1-.686 3.964c-.165.717.64.851.913.167a15.435 15.435 0 0 0 .991-6.8c-.356-5.097-14.649-10.604-20.363-9.506Zm.985 2.692c-1.439.329-1.779 2.515-1.91 3.684-.225 2-1.5.6-1.194-1.159.234-1.326 1.367-3.486 3.02-3.271a.376.376 0 0 1 .084.746Z" fill="#191919" fill-rule="evenodd"></path><path d="M146.549 90.62a13.088 13.088 0 0 0 1.618-4.376 10.216 10.216 0 0 1 3.767 1.5c.68.293.938-.6.6-.877a7.882 7.882 0 0 0-4.305-1.743c-.728-1.379-6.262-1.7-7.116-.245a1.7 1.7 0 0 0-1.385-.125c-.435-1.194-5.343-1.493-6.566-.114-1.409-.155-1.994 1.146-.132 1.134a14.722 14.722 0 0 0 .711 3.8c.482.986 3.948.971 4.638.472.821-.593 1.194-3.182 1.427-4.179a1.45 1.45 0 0 1 1.027.06 16.819 16.819 0 0 0 .453 3.97c.53 1.054 4.494 1.631 5.263.723ZM138 88.9c-.163.393-.31.487-1.624.435-2.22-.087-1.755.394-2.435-4.077a7.5 7.5 0 0 1 4.823 0A9.871 9.871 0 0 1 138 88.9Zm4.179.453a14.6 14.6 0 0 1-.263-3.737 7.229 7.229 0 0 1 5.272.161 9.159 9.159 0 0 1-.747 2.848c-.568 1.243-.662 1.406-2.453 1.26-.86-.07-1.688-.261-1.809-.531Z" fill="#191919" fill-rule="evenodd"></path><path d="M143.027 88.554c.187.674 1.5.753 1.194-1.194-.175-1.108-1.737-.76-1.194 1.194Z" fill="#191919" fill-rule="evenodd"></path><path d="M154.369 87.748c-3.426.287-5.117 6.563-6.937 7.164-1.272.421-4.125-1.409-7.008-1.606s-4.525 1.021-5.063.764-.167-2.507-.167-3.032-.286-.812-.794.346-5.462 12.274-3.307 15.265c3.08 4.274 15.649 5.179 19.551 2.239 4.892-3.686.729-15.524 1.934-18.608a2.328 2.328 0 0 1 2.466-1.23c1.648.714 1.195 5.6-1.439 4.835-.662-.191-.812.641-.2.962 1.789.941 3.545-.526 3.779-2.985.175-1.862-.457-4.311-2.815-4.114Zm-13.641 11.1c-2.483 0-2.985-.985-3.194-2.6a14.332 14.332 0 0 0 6.508-.113c-.227 1.476-.542 2.717-3.314 2.717Z" fill="#191919" fill-rule="evenodd"></path><path d="M139.54 88.357a16.105 16.105 0 0 0-1.027 3.3c-.247 1.345 1.542 1.349 2.55 1.194.6-.092.71-.776.053-.824-.483-.036-1.432-.06-1.522-.227a14.168 14.168 0 0 1 .639-3.283c.139-.44-.503-.612-.693-.16Z" fill="#191919" fill-rule="evenodd"></path><path d="M136.7 88.6c.556-.212.6-1.709.125-1.988-1.199-.712-1.366 2.456-.125 1.988Z" fill="#191919" fill-rule="evenodd"></path><path d="M146.483 35.93c-46.248.036-95.344-.071-140.888.317-.776.006-.794 2-.048 2.005 46.105.289 94.664-.071 140.888-.107.83-.001.848-2.215.048-2.215Z" fill="#191919" fill-rule="evenodd"></path><path d="M93.793 142.384c-7.9-.47-20.137-2.016-27.509-5.181-.948-.408-5.631.357-10.948-2.1-.556-.256-.777.527-.257.848 2.717 1.674 6.149 2.12 9.283 2.221a5.12 5.12 0 0 1 2.43.543 82.42 82.42 0 0 0 27.061 4.835c.758.011.734-1.118-.06-1.166Z" fill="#191919" fill-rule="evenodd"></path><path d="M183.61 140.116c-.154-.842-1.289-.545-1.147.292a20.287 20.287 0 0 1-.567 9c-2.041 7.113-8.047 5.972-14.059 5.695-6.31-.29-15-.895-20.452-1.146a.466.466 0 0 0-.147.92c5.245.833 16.449 1.326 20.814 1.533 5.97.284 12.63 1.08 14.853-5.832a21.526 21.526 0 0 0 .705-10.462Z" fill="#191919" fill-rule="evenodd"></path><path d="M144.477 143.68a232.99 232.99 0 0 1 23.319-2.513.491.491 0 0 0-.048-.98 195.432 195.432 0 0 0-23.468 2.388.561.561 0 0 0 .2 1.105Z" fill="#191919" fill-rule="evenodd"></path><path d="M62.225 135.03a.619.619 0 1 0-.054-1.236c-3.712.119-5.585-.935-8.035-2.675-.388-.275-.8.21-.5.6 1.744 2.305 5.813 3.419 8.589 3.311Z" fill="#191919" fill-rule="evenodd"></path><path d="M68.4 128.7c.452.784 1.4.89 2.244 1.081 4.985 1.133 16.392.755 21.683.693.752-.009.6-.981-.173-.974-3.863.039-15.522.149-21.307-.919-1.068-.2-1.013-.042-1.558-.9-1.03-1.626-2.566-3.615-4.429-3.648-.556-.01-.6.526-.126.764A7.771 7.771 0 0 1 68.4 128.7Z" fill="#191919" fill-rule="evenodd"></path><path d="M65.1 128.922c-2.582-.758-6.231-1.974-8.238-4.567-.6-.778-1.11-.173-.812.454 1.25 2.632 5.826 5 8.453 5.1 1.453.061 1.049-.855.597-.987Z" fill="#191919" fill-rule="evenodd"></path><path d="M54.643 126.881a.508.508 0 0 0-.818.6 11.552 11.552 0 0 0 8.328 4.889.6.6 0 0 0 .352-1.1c-.877-.378-4.605-.621-7.862-4.389Z" fill="#191919" fill-rule="evenodd"></path><path d="M169.766 157.476c-1.791-.233-22.566.227-23.528-.167S140.3 128.576 139 126.714s-42.249-.681-44.111.394 4.287 33.445 5.88 34.1c1.421.583 66.862-.227 69-.34s1.788-3.159-.003-3.392Zm-51.592-9.313c-5.587.465-7.338-8.7-1.755-9.611 2.65-.433 4.985 1.917 5.48 4.811a4.078 4.078 0 0 1-3.725 4.8Z" fill="#191919" fill-rule="evenodd"></path></svg>