<svg viewBox="0 0 400 400" xmlns="http://www.w3.org/2000/svg"><g><path d="M32.54 200a160 160 0 1 0 320 0 160 160 0 1 0-320 0Z" fill="#d9edff"></path><path d="M268 301.224H118.8a10.072 10.072 0 0 1-10.072-10.072V98a10.5 10.5 0 0 1 10.5-10.5h148.32a10.5 10.5 0 0 1 10.5 10.5v193.152A10.068 10.068 0 0 1 268 301.224Z" fill="#b0d9ff"></path><path d="M268 301.224H118.8a10.072 10.072 0 0 1-10.072-10.072V98a10.5 10.5 0 0 1 10.5-10.5h148.32a10.5 10.5 0 0 1 10.5 10.5v193.152A10.068 10.068 0 0 1 268 301.224Z" fill="none" stroke="#38a1ff" stroke-linecap="round" stroke-linejoin="round" stroke-width="4"></path><path d="M125.388 104.148h136.008v180.42H125.388Z" fill="#ffffff"></path><path d="m261.396 165.956-39.496 42.8a13.88 13.88 0 0 0 .8 19.6 13.676 13.676 0 0 0 6 3.224l-12.84 12.844 1.964 1.964-17.344 17.34a5.56 5.56 0 0 0 3.864 9.5 6 6 0 0 0 1.2-.124c15.2-3.232 22.932-7.9 23.02-13.892l1.048-1.052 3.928 3.928 9.66-9.688a14.216 14.216 0 0 0 2.192 1.444 13.88 13.88 0 0 0 16-2.112Z" fill="#b0d9ff"></path><path d="M125.388 104.148h136.008v180.42H125.388Z" fill="none" stroke="#38a1ff" stroke-linecap="round" stroke-linejoin="round" stroke-width="4"></path><path d="M144.776 148.56h84.812" fill="none" stroke="#38a1ff" stroke-linecap="round" stroke-linejoin="round" stroke-width="4"></path><path d="M144.776 173.54h84.812" fill="none" stroke="#38a1ff" stroke-linecap="round" stroke-linejoin="round" stroke-width="4"></path><path d="M144.776 201.3h59.112" fill="none" stroke="#38a1ff" stroke-linecap="round" stroke-linejoin="round" stroke-width="4"></path><path d="M155.404 79.168h75.976a5.036 5.036 0 0 1 5.02 5.036v26a5.04 5.04 0 0 1-5.04 5.04h-75.952a5.04 5.04 0 0 1-5.04-5.04v-26a5.036 5.036 0 0 1 5.036-5.036Z" fill="#ffffff"></path><path d="M155.404 79.168h75.976a5.036 5.036 0 0 1 5.02 5.036v26a5.04 5.04 0 0 1-5.04 5.04h-75.952a5.04 5.04 0 0 1-5.04-5.04v-26a5.036 5.036 0 0 1 5.036-5.036Z" fill="none" stroke="#38a1ff" stroke-linecap="round" stroke-linejoin="round" stroke-width="4"></path><path d="M169.796 104.148h47.188" fill="none" stroke="#38a1ff" stroke-linecap="round" stroke-linejoin="round" stroke-width="4"></path><path d="M180.9 76.392a13.88 13.88 0 1 0 27.76 0 13.88 13.88 0 1 0-27.76 0Z" fill="#ffffff"></path><path d="M180.9 76.392a13.88 13.88 0 1 0 27.76 0 13.88 13.88 0 1 0-27.76 0Z" fill="none" stroke="#38a1ff" stroke-linecap="round" stroke-linejoin="round" stroke-width="4"></path><path d="m251.828 199.572 48.62 18.136 20.452-32.8-52.864-14.276-16.208 28.94z" fill="#d9edff"></path><path d="m329.34 254.916 37.656-37.656a5.5 5.5 0 0 1 .464-.4c-12.604-10.936-15.712-34.104-39.952-46.76-31.908-16.664-71.372-12.688-106.036 30.6a9.26 9.26 0 1 0 14.4 11.64q3.448-4.264 6.928-7.94a9.2 9.2 0 0 0 2.876 2.072c36.268 27.46 43.6 30.948 52.472 34.4 13.72 5.332 19.776 7.908 29.864 17.04a4.612 4.612 0 0 1 1.328-2.996Zm-24.848-58.612a20.568 20.568 0 0 1-25.808 4.896l-21.448-9.808c12.516-9.16 25.144-12.984 37.72-11.344 10.7 1.376 13.176 10.84 9.536 16.256Z" fill="#ffffff"></path><path d="M132.304 333.36a60.196 6.944 0 1 0 120.392 0 60.196 6.944 0 1 0-120.392 0Z" fill="#b0d9ff"></path><path d="M153.248 230.144a12.336 12.336 0 1 0 21.056 8.724v2.464a9.872 9.872 0 1 0 19.74 0 9.868 9.868 0 0 0 9.868 9.868h7.4" fill="none" stroke="#38a1ff" stroke-linecap="round" stroke-linejoin="round" stroke-width="4"></path><path d="M275.644 203.356a9.264 9.264 0 0 1 8.756 9.748l-1.628 30.056a9.262 9.262 0 1 1-18.496-1.004l1.628-30.052a9.26 9.26 0 0 1 9.74-8.748Z" fill="#d9edff" stroke="#38a1ff" stroke-linecap="round" stroke-linejoin="round" stroke-width="4"></path><path d="M266.076 200.468a9.264 9.264 0 0 1 3.82 12.528l-11.052 21.512a9.261 9.261 0 1 1-16.348-8.708l11.052-21.512a9.264 9.264 0 0 1 12.528-3.82Z" fill="#d9edff" stroke="#38a1ff" stroke-linecap="round" stroke-linejoin="round" stroke-width="4"></path><path d="M366.996 217.26a5.5 5.5 0 0 1 .464-.4c-12.604-10.936-15.712-34.104-39.952-46.76-31.908-16.664-71.372-12.688-106.036 30.6a9.26 9.26 0 1 0 14.4 11.64q3.448-4.264 6.928-7.94a9.2 9.2 0 0 0 2.876 2.072c36.268 27.46 43.6 30.948 52.472 34.4 13.72 5.332 19.776 7.908 29.864 17.04m-23.504-61.6a20.568 20.568 0 0 1-25.824 4.888l-21.448-9.808c12.516-9.16 25.144-12.984 37.72-11.344 10.7 1.376 13.176 10.84 9.536 16.256Z" fill="none" stroke="#38a1ff" stroke-linecap="round" stroke-linejoin="round" stroke-width="4"></path><path d="M296.472 198.144 284.4 181.156l37.6-26.708a9.448 9.448 0 0 1 13.176 2.232l1.124 1.58a9.448 9.448 0 0 1-2.232 13.176Z" fill="#b0d9ff"></path><path d="M296.472 198.144 284.4 181.156l37.6-26.708a9.448 9.448 0 0 1 13.176 2.232l1.124 1.58a9.448 9.448 0 0 1-2.232 13.176Z" fill="none" stroke="#38a1ff" stroke-linecap="round" stroke-linejoin="round" stroke-width="4"></path><path d="m286.044 171.472 26.428-18.772a6.8 6.8 0 0 1 9.684 1.64" fill="none" stroke="#38a1ff" stroke-linecap="round" stroke-linejoin="round" stroke-width="4"></path><path d="m225.284 228.832-18.564 13.2a2.312 2.312 0 0 0 1.408 4.208c7.784-.32 18.908-1.732 18.744-7.164l3.776-2.68Z" fill="#b0d9ff" stroke="#38a1ff" stroke-linecap="round" stroke-linejoin="round" stroke-width="4"></path><path d="m232 238.272-6.704-9.44a2.316 2.316 0 0 1 .548-3.228l9.436-6.704 9.388 13.2-9.468 6.7a2.316 2.316 0 0 1-3.2-.528Z" fill="#ffffff"></path><path d="m232 238.272-6.704-9.44a2.316 2.316 0 0 1 .548-3.228l9.436-6.704 9.388 13.2-9.468 6.7a2.316 2.316 0 0 1-3.2-.528Z" fill="none" stroke="#38a1ff" stroke-linecap="round" stroke-linejoin="round" stroke-width="4"></path><path d="m243.316 230.224-6.704-9.424a4.628 4.628 0 0 1 1.092-6.456l46.696-33.188 12.068 16.988-46.696 33.176a4.628 4.628 0 0 1-6.456-1.096Z" fill="#b0d9ff"></path><path d="m243.316 230.224-6.704-9.424a4.628 4.628 0 0 1 1.092-6.456l46.696-33.188 12.068 16.988-46.696 33.176a4.628 4.628 0 0 1-6.456-1.096Z" fill="none" stroke="#38a1ff" stroke-linecap="round" stroke-linejoin="round" stroke-width="4"></path><path d="M304.492 196.304a20.568 20.568 0 0 1-25.808 4.896l-25.32-11.6a9.264 9.264 0 1 0-7.704 16.848c36.268 27.464 43.6 30.948 52.472 34.4" fill="#ffffff"></path><path d="M304.492 196.304a20.568 20.568 0 0 1-25.808 4.896l-25.32-11.6a9.264 9.264 0 1 0-7.704 16.848c36.268 27.464 43.6 30.948 52.472 34.4" fill="none" stroke="#38a1ff" stroke-linecap="round" stroke-linejoin="round" stroke-width="4"></path><path d="M304.492 196.304a20.568 20.568 0 0 1-25.808 4.896l-25.32-11.6a9.264 9.264 0 1 0-7.704 16.848c36.268 27.464 43.6 30.948 52.472 34.4" fill="#ffffff"></path><path d="M304.492 196.304a20.568 20.568 0 0 1-25.808 4.896l-25.32-11.6a9.264 9.264 0 1 0-7.704 16.848c36.268 27.464 43.6 30.948 52.472 34.4" fill="none" stroke="#38a1ff" stroke-linecap="round" stroke-linejoin="round" stroke-width="4"></path></g></svg>