<svg xmlns="http://www.w3.org/2000/svg" fill="none" viewBox="0 0 24 24"><path fill="#000000" fill-rule="evenodd" d="M12 1C8.077 1 4.644 3.15 2.767 6.363L6.363 9.24A6.5 6.5 0 0 1 16.403 7L19.5 3.713C17.707 2.023 15.191 1 12 1Zm0 22c2.843 0 5.15-.812 6.887-2.184l-3.782-2.955.026-.033a6.5 6.5 0 0 1-8.742-3.016L2.744 17.6C4.618 20.833 8.061 23 12 23Zm7.998-3.22c1.814-1.99 2.752-4.741 2.752-7.78 0-.683-.047-1.351-.142-2H12v4h6.436a6.509 6.509 0 0 1-2.015 2.985l3.577 2.796ZM5.75 12c0 .45.046.888.132 1.311l-3.81 2.915A11.188 11.188 0 0 1 1.25 12c0-1.51.298-2.95.836-4.261l3.781 3.025c-.077.4-.117.813-.117 1.236Z" clip-rule="evenodd"></path></svg>