<svg viewBox="0 0 200 200" fill="none" xmlns="http://www.w3.org/2000/svg"><path d="M146.54 148v12.7H152c-.14-4.667-.277-9.353-.41-14.06l-5.05 1.36Z" fill="#6cecc4"></path><path d="M179 83.59c-.92-.2-2.34-.67-3.26-.32-.92.35-1.61 1.68-2.07 2.52-4.91 8.84-10.3 35.6-12.1 45.55a11.996 11.996 0 0 1 4.62 3.15c2.26-6.32 17.32-47.57 17.72-48.44-1.05-1.37-3.25-2.05-4.91-2.46Z" fill="#6cecc4"></path><path d="m120.37 139.85 5.15-.06c-.11-1-.2-2-.3-3a9.307 9.307 0 0 0-4.85 3.06Z" fill="#6cecc4"></path><path d="M166.25 137.67c-1.84-3.91-6.62-5.46-10.87-6.13-4.84 5.92-13 4.49-19.89 4.31v3.82l31.26-.38a6.473 6.473 0 0 0-.5-1.62Z" fill="#6cecc4"></path><path d="M135.51 123.66v10.49c2.3 0 4.6.1 6.89.21 8.77.43 14.53-2.61 14.88-11.49l-21.77.79Z" fill="#ff3e74"></path><path d="m124.42 124.25-1.82.48c-3.86 1.07-8.37 2.12-11.35 5-4.74 4.55-5.12 12.17-4.81 18.31a79.05 79.05 0 0 0 3 17.06c.31 1.12.4 2.5 1.42 3.1a5.88 5.88 0 0 0 7.77-1.41c-3.55-11.54-4.89-27.8 6.49-31.46-.18-1.79-.59-5.73-.7-11.08Z" fill="#ff3e74"></path><path d="M160.62 117.62c-2.25-12.17-7.55-28.79-19.83-34.07 1.38 9.49 2 24.16 2.1 34a1.27 1.27 0 0 1-.81 1.18 50.225 50.225 0 0 1-6.57 1.27v2l25.68-.93c-.19-1.15-.36-2.3-.57-3.45Z" fill="#ffffff"></path><path d="M141.22 105.1c-.195-7.4-.846-14.78-1.95-22.1-.46-3-.87-6.65-2.69-8.92-2.12-2.65-5.72-3.16-9-2.54a25.75 25.75 0 0 1-.43 7.61 3.439 3.439 0 0 1 2.78 3.41c.17 3-2.9 6.6-6.08 6.82a17.426 17.426 0 0 1-2 9.15v6.42c4.98.68 14 1.42 19.37.15Z" fill="#ffffff"></path><path d="M141.56 117.29c0-2.08-.23-9.18-.28-10.65-5.38 1.38-14 .76-19.45 0v10.74c.47-.32 4 1.74 12.38 1.08a46.714 46.714 0 0 0 7.35-1.17Z" fill="#ffffff"></path><path d="M135.81 150.37c.93.27 3.76 1.08 3.4.18a16.98 16.98 0 0 0-3.69-1.9c-1.34-.63-1.35-1.27-1.35-2.68v-25.84a35.007 35.007 0 0 1-8.49-.16c.052 7.835.583 15.66 1.59 23.43.42 3.81 1 7.84 3.59 10.84a8.258 8.258 0 0 0 5 2.82c.2 0 1.4.25 1.58.1.18-.15-.19-.2-.44-.33-1-.5-1.93-1-2.9-1.46-.62-.31.17-1.77.77-1.62 1.162.307 2.358.472 3.56.49-.36-.23-1.17-.67-1.43-.85l-2-1.39c-.5-.4.18-1.82.81-1.63Z" fill="#ffde26"></path><path d="M128.6 83.25a2.65 2.65 0 0 0-2-2.46c-2.81-.54-4.46 3.54-5.18 3.33a3.999 3.999 0 0 1-3.42-1.18 5.218 5.218 0 0 1-1.17-3.06c-.12-1.32.33-2.62-.07-3.89-.54-1.76-1.47-2.87-1.4-4.77a6.431 6.431 0 0 0-.13-2.62 4.061 4.061 0 0 0-2.15-1.86 6.002 6.002 0 0 0-6.11.31c-1.77 1.19-3.11 3.1-4.67 4.56-1.76 1.66-4.58 4.29-7.26 3.7-2.41 10.2-2.45 24.48 7.68 26.65 4.91 1.05 10.71 1.39 15.25-1.09a6 6 0 0 0 2.56-2.39 15.06 15.06 0 0 0 1.91-9.66c0-.43.45-1.29 1-1.2 2.31.43 5.34-1.95 5.16-4.37Zm-20.29-11.43a6.728 6.728 0 0 0 6.13 3.5c.77 0 .08 1.63-.62 1.66a7.353 7.353 0 0 1-6.64-3.79c-.34-.62.76-2.05 1.13-1.37Zm-8.43 14.66c-.65 1.89-1.83 4.08-3.75 3.57-1.92-.51-1.57-2.91-.94-4.82a12.844 12.844 0 0 1-.75-2.56 3.72 3.72 0 0 1-.08-2.35c1.06-2 6-3.22 8.23-3.24.77 0 .1 1.62-.6 1.66-.09.953-.231 1.901-.42 2.84.69-.89 1.46-1.72 2.12-2.48.79-.92 1.28.24.67 1a27.994 27.994 0 0 0-2.81 3.61c-1.16 1.89.51 2.93 2.15 3.47.66.21-.19 1.82-.91 1.58a4.708 4.708 0 0 1-2.91-2.28Zm12.25 10.42c-3.15-7.33-9.87-6-10.26-.3 0 .68-1.38 1.78-1.31.73.53-7.8 9-10.47 12.83-1.52.27.63-.89 1.96-1.26 1.09Zm2.45-6.77c-2.28.48-3.88-1-5-2.82a19.998 19.998 0 0 1-2.36-8.55 15.816 15.816 0 0 0-1.81-.1c-.78 0-.08-1.68.63-1.67 2.72 0 6.78.64 8.79 2.65.58.59.27 1.46.12 2.24 0 .15-.07.31-.1.47 1.88 3.1 3.25 7.06-.27 7.78Zm11.68-7-2.9 2c-.34.24-.65 0-.67-.38a1.36 1.36 0 0 1 .18-.64 1.36 1.36 0 0 1 .46-.48l2.9-2c.32-.22.65 0 .67.39a1.375 1.375 0 0 1-.64 1.08v.03Z" fill="#ffde26"></path><path d="M72.43 41.32a8.812 8.812 0 0 0-9.68 8.56 9.48 9.48 0 0 0 8.61 9.3A8.819 8.819 0 0 0 81 50.61a9.51 9.51 0 0 0-8.57-9.29Z" fill="#ff3e74"></path><path d="M114.9 82.35a10.773 10.773 0 0 1-1.26 3.38 3.003 3.003 0 0 1-2.71 1.74c-1.14-.14-1.8-1.25-2.26-2.29a15.344 15.344 0 0 1-.92-3c.364 1.78.998 3.492 1.88 5.08 1.07 1.81 2.67 3.3 5 2.82 3.47-.68 2.1-4.63.27-7.73Z" fill="#ffde26"></path><path d="M95.19 85.23c-.63 1.91-1 4.3.94 4.82 2.22.59 3.47-2.41 4.07-4.63-1.56 2.5-3.72 2.72-5.01-.19Z" fill="#ffde26"></path><path d="M72.55 50.76c-.1-1.61-.21-3.23-.31-4.84-.07-1.07-1.36 0-1.31.73.1 1.61.2 3.23.31 4.84.07 1.07 1.36-.03 1.31-.73Z" fill="#38a1ff"></path><path d="M72.2 54.39a1.34 1.34 0 0 0-.64 1.11c0 .39.16.41.51.59s1.15-.59 1.11-1.15a.68.68 0 0 0-.98-.55Z" fill="#38a1ff"></path><path d="M105.75 36.79c2.06 1 4.79 1 7 .67a13.764 13.764 0 0 0 4.53-1.46 4.169 4.169 0 0 1 .45 4.36 10.284 10.284 0 0 1-4.87 4.53c-1-3.95-7.21-6.15-9-1.91-1.21 2.91 2.57 5.73 7.79 3.9a4.002 4.002 0 0 1-4 3.79c-.71 0-1.39 1.71-.63 1.67a6.472 6.472 0 0 0 5.94-6c3.42-1.72 7.44-5.7 6.38-9.7a6.614 6.614 0 0 0-.64-1.56c3.63-2.72 5.35-7.74 3.29-11.68a14.134 14.134 0 0 0-5.79-5.28 9.871 9.871 0 0 0-7.49-1.31c-3.82 1.11-6.72 6.57-2.83 9.42.59.42 1.53-1.13.92-1.58a3.45 3.45 0 0 1-1.25-3.83c.5-1.54 2.21-2.33 3.69-2.56 3.06-.48 6.12 1.24 8.48 3 5.6 4.25 4.55 9.89.27 12.74a13.263 13.263 0 0 0-9.7-4.73 4.74 4.74 0 0 0-4.57 3 3.666 3.666 0 0 0 2.03 4.52Zm-.37 7.65c-.9-1.13.31-2 1.41-2a4.85 4.85 0 0 1 4.63 3.06c-1.97.5-4.77.5-6.04-1.06Zm.55-13.09c2.42-1.29 7.64.59 10.47 3.56-3 1.3-9 1.94-11-.69a1.952 1.952 0 0 1-.386-1.555 1.952 1.952 0 0 1 .916-1.315Z" fill="#38a1ff"></path><path d="M74.21 60.55a11.18 11.18 0 0 0 8.14-10.67 10.36 10.36 0 0 0-7.21-9.82 10.61 10.61 0 0 0-11.54 4 10.89 10.89 0 0 0-.66 12 10.25 10.25 0 0 0 11.27 4.49Zm-1.78-19.23A9.51 9.51 0 0 1 81 50.61a8.82 8.82 0 0 1-9.68 8.57 9.48 9.48 0 0 1-8.61-9.3 8.81 8.81 0 0 1 9.72-8.56Z" fill="#38a1ff"></path><path d="M56.36 53.08c-.24-.89-1.44.42-1.27 1.08l1.65 6.32c.24.89 1.44-.42 1.27-1.08l-1.65-6.32Z" fill="#38a1ff"></path><path d="m81.84 61.8-4.75 4.49c-1 .93-.3 1.89.36 1.27l4.75-4.49c.27-.26.61-.77.45-1.17-.16-.4-.54-.35-.81-.1Z" fill="#38a1ff"></path><path d="m86.5 67-3.08 2a1.34 1.34 0 0 0-.64 1.12c0 .37.32.61.67.39 1-.66 2-1.31 3.08-2a1.318 1.318 0 0 0 .64-1.11c-.02-.4-.32-.64-.67-.4Z" fill="#38a1ff"></path><path d="M50.52 51.31c-.39-.86-1.55.46-1.27 1.09l1.51 3.32c.39.86 1.55-.46 1.27-1.09l-1.51-3.32Z" fill="#38a1ff"></path><path d="M136.57 115.7c1.49-.2 2.25-1.81 2.36-3.16.18-1-.73-3-2.36-2.71-1.44.27-2.29 1.94-2.29 3.3 0 1.36.85 2.77 2.29 2.57Zm-1-3.3c0-1.48 1.94-1.16 2 .73-.02 1.63-2.01.94-1.97-.73h-.03Z" fill="#38a1ff"></path><path d="M100.56 97.33c-.07 1 1.27 0 1.31-.73.39-5.7 7.12-7 10.26.3.37.87 1.53-.46 1.26-1.09-3.83-8.92-12.29-6.31-12.83 1.52Z" fill="#38a1ff"></path><path d="M102.79 88.71c.72.24 1.57-1.36.91-1.58-1.64-.54-3.31-1.58-2.15-3.47a27.987 27.987 0 0 1 2.81-3.61c.61-.71.12-1.87-.67-1-.66.76-1.43 1.59-2.12 2.48.19-.939.33-1.887.42-2.84.7 0 1.37-1.67.6-1.66-2.25 0-7.17 1.28-8.23 3.24a3.72 3.72 0 0 0 .08 2.35c.16.877.412 1.735.75 2.56 1.3 2.93 3.45 2.68 5 .19-.09.34-.2.7-.32 1.06a4.72 4.72 0 0 0 2.92 2.28ZM100 83.15a3.9 3.9 0 0 1-1.28 2.41 1.131 1.131 0 0 1-1.14.08 9.32 9.32 0 0 0-1.09-5.4 12.218 12.218 0 0 1 4.23-1.41 40.202 40.202 0 0 1-.72 4.32Z" fill="#38a1ff"></path><path d="M194.66 178.47h-22.95a4.515 4.515 0 0 0 1.18-1.51c1.57-4-1.81-6.2-4.42-4.47a42.476 42.476 0 0 0-4-6 15.582 15.582 0 0 0-11.09-5.31c-.14-5.12-.283-10.24-.43-15.36h3.71a1.16 1.16 0 0 0 1-1.19c-.16-1.18-.31-2.37-.47-3.55l10-.12c.48 0 .89-.55 1-1a6.731 6.731 0 0 0-1.19-4.36c2.11-5.79 17.6-48.21 18-49.29a1.599 1.599 0 0 0 0-1.65c-1.35-2-4.6-2.67-6.79-3-1.64-.23-2.61-.13-3.77 1.1-2.51 2.65-3.75 6.69-4.9 10.06a277.134 277.134 0 0 0-7 27.39 79.504 79.504 0 0 0-2.65-12.32c-3.16-10.83-8.81-22.47-19.36-26.39-.44-2.91-.92-6.54-2.77-8.85-2.46-3.07-6.63-3.52-10.36-2.68a17.102 17.102 0 0 0-2.4-6.06c-5.14-8.12-4.32-3.81-12.78-6.72-8.46-2.91-16.02-2.46-17.54 2.17-1.52 4.63 2.74 9.19-3.34 11.32-5.78 2-7.91 13 .9 16.73A25.52 25.52 0 0 0 93.77 96c1.4 3.7 4.18 6.73 8.12 7.6 5.19 1.14 11.29 1.41 16.09-1.22a9.57 9.57 0 0 0 2.54-2v17.94c0 .13.06.37.2.42 1.202.456 2.439.81 3.7 1.06v2.88a68.604 68.604 0 0 0-9.21 3.06c-12.29 5.12-10.83 22.21-8.83 32.83.68 3.57 1.18 5.27 2 8.77-4-.23-9.52-1.34-13.86.32-3 1.17-4.87 4.53-5.56 7.67-.57 0-1 .69-1 1.2v2.43c0 .19.1.47.34.47h34c.5 0 1-.83 1-1.2v-2.37c.36-2.77.71-6.33-.57-8.87-.55-1.09-1.76-1.95-2.9-1.38a62.985 62.985 0 0 1-2.09-10.07c-.56-4.61-.67-9.85 1.53-14l6.43-.08a49.023 49.023 0 0 0 1.5 9.37c1.26 4 4.15 7.58 8.54 8 1.35.13 3.48 0 3.55-1.79a1.404 1.404 0 0 0-.45-1.12 1.804 1.804 0 0 0 1.14-1c.44-.92 0-1.52-.66-2.15.295-.027.585-.098.86-.21a1.919 1.919 0 0 0 1.15-2.12c-.31-1.22-1.95-2-3-2.52a12.648 12.648 0 0 1-2.34-1c-.88-.69-.53-2.44-.52-3.42v-2.12l6.09-.08v4.09c0 .19.1.46.34.46h3.37a.817.817 0 0 0-.07.3v15.16a16.688 16.688 0 0 0-8.17 2.91c-2.83 2.05-4.45 4.82-5.92 7.85a3.8 3.8 0 0 0-4.31 2.22c-.81 1.62-.63 3.94 1.15 4.85 1.78.91 3.8-.31 4.72-1.93a.921.921 0 0 0 .09-.2 3.773 3.773 0 0 0-.7-4.41c1.25-2.62 2.58-5 5-6.84a15.108 15.108 0 0 1 9.28-2.87h2.6v8.38c-3.06 1.55-4.19 6.52-1.53 7.9 2 1 4.08-.84 5-2.48 1.35-2.36.68-5.9-2.15-5.78v-8h2a14.866 14.866 0 0 1 11 4.86 54.305 54.305 0 0 1 4.1 6 4.002 4.002 0 0 0 0 4.83h-9.16c-.71 0-1.41 1.67-.63 1.67H194c.74-.13 1.44-1.8.66-1.8Zm-63-1.79c-1.41 2.3-5.15.26-3.8-2.13a2.131 2.131 0 0 1 2.9-.7 2.237 2.237 0 0 1 .94 2.83h-.04Zm42-90.89c.46-.84 1.12-2.15 2.07-2.52.95-.37 2.34.12 3.26.32 1.68.36 3.86 1.09 4.91 2.46-.05.1-16.38 44.68-17.72 48.44a12 12 0 0 0-4.62-3.15c1.8-9.92 7.18-36.7 12.1-45.55ZM162 122.62c-.56 2.76-1.1 5.52-1.59 8.29a25.268 25.268 0 0 0-3.91-.95 16.15 16.15 0 0 0 2.08-7.14c3.42-.12 3.17-.08 3.42-.2Zm-13.85.75.1-.17 9-.33c-.35 8.88-6.11 11.92-14.88 11.49-2.29-.11-4.59-.21-6.89-.21v-10.49l2.15-.08a.47.47 0 0 0 .06.2c2.47 4.22 8.01 3.22 10.44-.41h.02Zm-8.43.13 7.11-.25a4.725 4.725 0 0 1-3.508 1.748 4.734 4.734 0 0 1-3.622-1.498h.02Zm20.92-5.88c.21 1.15.41 2.31.57 3.46l-25.68.93v-2a50.225 50.225 0 0 0 6.57-1.27 1.274 1.274 0 0 0 .81-1.18c-.08-10-.73-24.58-2.1-34 12.26 5.27 17.56 21.89 19.81 34.06h.02ZM127.56 71.5c3.3-.61 6.9-.11 9 2.54 1.46 1.82 2 4.53 2.39 7a174.3 174.3 0 0 1 2.25 24.09c-5.37 1.27-14.43.52-19.39-.19v-6.45a17.426 17.426 0 0 0 2-9.15c3.18-.22 6.25-3.79 6.08-6.82a3.439 3.439 0 0 0-2.78-3.41c.527-2.5.679-5.065.45-7.61Zm-6.66 26.32a6.422 6.422 0 0 1-2.94 3.05c-4.54 2.48-10.34 2.14-15.25 1.09C92.54 99.78 92.64 85.42 95 75.31c2.68.59 5.5-2 7.26-3.7 1.56-1.46 2.9-3.37 4.67-4.56a6.002 6.002 0 0 1 6.11-.31 4.06 4.06 0 0 1 2.15 1.86c.223.855.267 1.747.13 2.62-.07 1.9.86 3 1.4 4.77.4 1.27 0 2.57.07 3.89a5.219 5.219 0 0 0 1.21 3.06 4.002 4.002 0 0 0 3.46 1.18c.39.11.75-.59 1.31-1.26 1-1.22 2.4-2.43 4-2a2.639 2.639 0 0 1 1.88 2.43c.18 2.42-2.85 4.8-5.19 4.37-.53-.09-1 .77-1 1.2a15.433 15.433 0 0 1-1.56 8.96Zm1.1 79.89H89.26V177H122v.71Zm-2.39-10.4c.28-.29.56-.37 1.1-.05 1.55.9 1.5 3.61 1.52 5.16 0 1 0 1.91-.1 2.86H90.18c.53-2.66 2-5.45 4.7-6.25 5.51-1.61 14 .37 14.3.18 2 2.45 5.93 2.3 8.4.33a9.004 9.004 0 0 0 1.5-1.59c.184-.202.355-.415.51-.64h.02Zm-.61-27.44c-4.7 7.06-2.87 18.77-.37 26.89a5.878 5.878 0 0 1-7.77 1.41c-1-.6-1.11-2-1.42-3.1a79.05 79.05 0 0 1-3-17.06c-.31-6.13.07-13.76 4.81-18.31 3-2.85 7.49-3.9 11.35-5l1.82-.48c.1 5.1.51 9.11.66 11.05a10.462 10.462 0 0 0-4.63 2.74 12.777 12.777 0 0 0-1.45 1.86Zm1.41 0a9.39 9.39 0 0 1 4.85-3.07c.1 1 .19 2 .3 3l-5.15.07Zm15.15 8.8a16.98 16.98 0 0 1 3.69 1.9c.37.92-2.44.1-3.4-.18-.63-.19-1.31 1.23-.77 1.62l1.94 1.4c.26.18 1.07.62 1.43.85a14.916 14.916 0 0 1-3.56-.49c-.6-.15-1.39 1.31-.77 1.62 1 .49 1.94 1 2.9 1.46.25.13.63.17.44.33s-1.38-.07-1.58-.1a8.263 8.263 0 0 1-5-2.82c-2.59-3-3.17-7-3.59-10.84a191.457 191.457 0 0 1-1.58-23.42c2.813.403 5.664.457 8.49.16V146c0 1.54-.02 2 1.32 2.65l.04.02Zm-9.83-30.47c-2.34-.39-3.61-1-3.87-.78v-10.74c5.47.74 14.07 1.36 19.45 0 .05 1.47.26 8.57.28 10.65a40.41 40.41 0 0 1-15.9.85l.04.02Zm25.12 54.58c1.18.73 1.08 2.24.62 3.37-.61 1-1.86 2-3.1 1.38-1.24-.62-1.32-2.37-.72-3.48.6-1.11 1.95-2.05 3.16-1.29l.04.02Zm-4.27-12.06V148l5.08-1.39c.14 4.667.277 9.353.41 14.06l-5.49.05Zm-11-21v-3.82c6.88.18 15 1.61 19.89-4.31 3.78.59 7.84 1.82 10.12 4.89a6.375 6.375 0 0 1 1.25 2.86l-31.26.38ZM168 174.55a2.14 2.14 0 0 1 2.9-.7 2.25 2.25 0 0 1 .91 2.83c-1.41 2.32-5.15.26-3.81-2.13Z" fill="#38a1ff"></path><path d="M113.82 77c.7 0 1.39-1.7.62-1.66a6.733 6.733 0 0 1-6.13-3.5c-.37-.68-1.47.75-1.13 1.37a7.353 7.353 0 0 0 6.64 3.79Z" fill="#38a1ff"></path><path d="M106.09 77c-.71 0-1.41 1.66-.63 1.67.605-.001 1.209.032 1.81.1.115 2.202.588 4.37 1.4 6.42.46 1 1.13 2.15 2.26 2.29a3 3 0 0 0 2.71-1.74 11.418 11.418 0 0 0 1.36-3.86c.15-.78.46-1.65-.12-2.24-2.01-2.01-6.07-2.64-8.79-2.64Zm7.8 4.18c-.27 1.84-1.28 6.16-3.21 4.1a9.706 9.706 0 0 0-1.2-6.11 12.738 12.738 0 0 1 4.41 2v.01Z" fill="#38a1ff"></path><path d="m123.36 85.11 2.9-2a1.376 1.376 0 0 0 .64-1.11c0-.38-.35-.61-.67-.39l-2.9 2a1.368 1.368 0 0 0-.64 1.12c.02.35.31.62.67.38Z" fill="#38a1ff"></path><path d="M22 181.81h3.85v-66.92H22v66.92Z" fill="#ffde26"></path><path d="M99.14 181.81H103V115h-3.86v66.81Z" fill="#ffde26"></path><path d="M15.58 103.88v6.83h92.57v-5.93l-92.57-.9Z" fill="#ffde26"></path><path d="M127.2 181.81h-22.9v-69.43h4.2c.49 0 1-.83 1-1.2v-7.59c0-.2-.11-.47-.34-.47L95.35 103v-2.82c0-.19-.1-.47-.34-.47H68.84L54 64.06c-.13-.31-.36-.33-.64-.21l-2.74 1.22a1.27 1.27 0 0 0-.62 1.29c10.49 25.84 13.72 33.85 14.75 36.33l-49.5-.48c-.57 0-1 .69-1 1.2v8.5c0 .2.1.47.34.47h6v69.43H6c-.71 0-1.41 1.67-.63 1.67h29.14c.71 0 1.41-1.67.63-1.67h-8v-69.43h70.68v69.43h-7.08c-.71 0-1.4 1.67-.62 1.67h36.46c.71 0 1.42-1.67.62-1.67ZM52.9 65.57c4.38 10.5 14.2 34.08 14.74 35.37l-1.48 1c-4.34-10.64-14.55-35.8-14.55-35.8l1.29-.57ZM69 101.36h25V103l-26.75-.26c1.51-1.05 1.55-1.08 1.75-1.38Zm-43.19 80.45H22v-66.92h3.85l-.04 66.92Zm-10.23-71.1v-6.83l92.57.9v5.93H15.58Zm87.42 71.1h-3.86V115H103v66.81Z" fill="#38a1ff"></path><path d="M84.06 181.81h-7.29c-.71 0-1.41 1.67-.63 1.67h7.29c.71 0 1.41-1.67.63-1.67Z" fill="#38a1ff"></path></svg>