<svg xmlns="http://www.w3.org/2000/svg" viewBox="0 0 200 200"><g><g><g fill="#000000"><path d="M70.77 150.1a36.33 36.33 0 0 1 5.11-1.4l.21.77a.39.39 0 0 0 .42.29l6.87-.8c1.89-4.31 5.36-10.84 5.41-10.94-.05-1.63 0-3 0-4.56-3.93 1.46-11.2 4.23-15 6a.49.49 0 0 0-.21.53s.07.25.16.61c-1.86 0-7.43-.27-8.77 1a1.56 1.56 0 0 0-.29 1c-.08 1.38.61 12.1 1.71 15.25.57 1.65 1.77 1.47 2.59-.11a27.29 27.29 0 0 0 1.81-7.43c0-.13-.03-.12-.02-.21zm-1.15-8.95c1.22-.1 1.6-.08 4.22-.16.47 1.78 1.44 5.44 1.94 7.31a35.92 35.92 0 0 0-5.21 1.21 54.65 54.65 0 0 1-.95-8.36zm46.44-37.7z"></path><path d="M162.81 53.63c.25-.35-.07-.8-.34-1.15a15.07 15.07 0 0 1 2.53-2.09 16.27 16.27 0 0 0 4.19-3c.51-.53 1.47-1.62 1.11-2.26s-1-.68-1.87-.31a4.87 4.87 0 0 0 .91-1.35c.28-.78-.38-1.41-1.81-.83.52-.83.64-1.7-.24-2.12-.71-.34-1.75.47-2.35 1a34.1 34.1 0 0 0-3.31 3.32c-.63-1.32-1.63-2.84-2.88-2.36s-.28 2.63.36 3.8l-2.27 1.57a2.11 2.11 0 0 0-1.12-.25c-2.58.44-14.43 9.46-15.63 9.46-.92 0-14.06-6.3-25.42-8.12a.38.38 0 0 0-.31-.26 32 32 0 0 0-6-.45.42.42 0 0 0-.31.17h-.84c-.2-.81-.94-2.68-1.2-3.4.68-.59 1.62-.89 2.11-1.84.9-1.76.86-4.82.61-6.78 1.13-.86 1.16-2.24.9-3.65-.1-.57-.41-1.86-.89-2.18-.27-.18-.84 0-1.33.18-.49-1.14-.49-.62-.29-1.08a1.94 1.94 0 0 0 .16-.67c.53.16 1.63-.9 1.25-2.3a8.88 8.88 0 0 0-.73-1.44c.14-.34.44-.75-.5-2a3 3 0 0 0-1.51-.88h-.46a2.55 2.55 0 0 0-1.38-1 3.33 3.33 0 0 0-2.5.35c-.2.15-.36.35-.56.49a2.89 2.89 0 0 0-3 0 2.11 2.11 0 0 0-1.18 1.16 3.73 3.73 0 0 0-3 .25 7.52 7.52 0 0 0-3.6 4.39 7.46 7.46 0 0 0 0 .85H90c-1.5-.22-3.41 3.34-1.88 6.11.18.33.41.64.63 1 .64 1 .39 1.3 1.82 2.52.42.36.49.33.75.55s.16.11.31.67a2.57 2.57 0 0 0 1.18 1.59A4.6 4.6 0 0 0 94 43.91a3.09 3.09 0 0 0 .73.6.55.55 0 0 0 .24.07c.3 1.86.67 4.28.83 5.31l-.89.48A28.67 28.67 0 0 0 91.52 52a.42.42 0 0 0-.17.25c-1.06.56-2.06 1.09-2.63 1.43C80.78 58.39 58.23 89.44 58 90.86a.42.42 0 0 0 0 .25 6.52 6.52 0 0 0 1.17 1.39 3.88 3.88 0 0 1-.5.71c-2 1.31-5 3.26-6.61 5a.87.87 0 0 0 .29 1.47c.3.1.35.07 2.3-1a5.44 5.44 0 0 0-1.29 1.68c-.13.55.37.87 1 .77a3.47 3.47 0 0 0 1-.44 1.72 1.72 0 0 0 0 1.87c1 1.26 3.62-2.71 5-3.69.56.71 1.32 2.37 2.53 1.93 1.05-.39-.1-2.7 0-3.37a11.77 11.77 0 0 1 1.3-1.08 6.92 6.92 0 0 0 2.59 1.19c1.65 0 18.87-17.38 20.18-18.77-.47 4.42-2.84 23.39-2.34 27.08.23 1.67 4.24 1.91 5.93 2-.51 12-.85 30.18-.94 30.37-2.65 5.71-3.37 7.27-4.26 9-1.62 3.1-8.44 14.54-9.21 17.14-.11.41-.12.57.31 1.33a41.69 41.69 0 0 0-3.58 4.31c-.55 1 1.81 10.32 3.48 13.62.38.74 1 1.88 1.83 1.85 2.5-.09 2.49-9.07 2.42-11.58a.32.32 0 0 0-.08-.21 19.89 19.89 0 0 1 1.48-1.94 7.49 7.49 0 0 0 1 .58c.34.15.72-.11 1-.34 3.33-2.62 21.29-25 25.14-35.56 1.75-4.82 4.08-11.48 4.74-16.2a36.93 36.93 0 0 0 .11-9 .16.16 0 0 1 .32 0 34.36 34.36 0 0 1 .29 9.11c-.74 6.55-5.91 20.2-8.67 25.22 2.38-.44 7.22-1.4 9.56-2.1 7.8-2.37 15-9.44 15.63-17.38a103.18 103.18 0 0 0 0-11.23 66.23 66.23 0 0 0-2-15.31c2.12-1.15 4.06-2.5 4.69-3.74 1.35-2.65-2.22-17.9-3-22.18 4.27.47 11.54 1.32 14.93-1.33 3.88-3.12 12.26-11.9 17.07-18.65zM80.06 173.34c-1.8-1.09-4.32-3.68-4.7-5.71.41-.52.84-1 1.24-1.54a22.3 22.3 0 0 0 5 5.41 20.26 20.26 0 0 0-1.54 1.84zm79.5-126.78a.24.24 0 0 0 .08-.32c-.35-.65-1.4-2.94-.67-3.2.42-.16.79.1 1.1.45a6.79 6.79 0 0 1 1.09 2 .34.34 0 0 0 .59.11c1-1.11 3.34-3.64 4.66-4.32 1-.52 1.24.44-1.21 2.68a21 21 0 0 0-1.62 1.37.23.23 0 0 0 0 .27c0 .26.21.55.57.28a26.3 26.3 0 0 1 2.75-2.11 3.6 3.6 0 0 1 1.66-.64c-.3.92-3.09 3.42-3.33 3.7a.39.39 0 0 0 .51.59c1.11-.72 3.05-2.4 3.72-2.15s-1.32 2.11-1.82 2.55c-2.87 2.49-2.13.89-5.45 4.27a23 23 0 0 0-4.93-4.08zm-43.45 47.83c-.17-1.38-.38-2.87-.64-4.42l.43-.57c2-2.57 2.6-6.66 2.41-9.87 1.07 4.69 1.92 9.3 2.57 13.88zm-14.87-34.24c-2.63-2-6.86-5.45-9.32-7.81l4-2a50.86 50.86 0 0 1 9.33 11.74 87.39 87.39 0 0 1 8.47 22.45L99.46 64.36l1.86-3.86a.31.31 0 0 0-.08-.35zM108 48.81c.06.11.75 1.58 1.8 4.15 0 .11-.19 2.61-.28 3.49a15.57 15.57 0 0 1-3.58-2c.22-.87 1.21-4.82 1.28-5.71zm-3.55 10.74c.07-.18.14-.42.22-.7l.67.35c.38.25.23-.51.57 1.69 0 .37.1.78.12 1.23-.46-.83-1.03-1.72-1.57-2.57zm-.56-.84a49.55 49.55 0 0 0-6.42-7.42l7.53 3.27c-.29.69-.71 2.8-1.1 4.15zm7.69 5.86c-1-2.73-1.77-5.78-2.15-6.58a4.16 4.16 0 0 0 0-.75 1.68 1.68 0 0 0 .45.1.4.4 0 0 0 .4-.34c.08-.33.21-2 .23-2.37a182.27 182.27 0 0 1 7.27 22.53c-5.65-12.02-4.78-8.54-6.19-12.59zm8.27 19.09C117.57 72.73 113.56 59.1 109 49a31.67 31.67 0 0 1 5 .4c.85 7.6.14 7.34.71 7.64s4 1.68 4.51 1.89c-.05.77.67 22.79.64 24.73zm-11.51-52.47a6.54 6.54 0 0 1 .53 3.64 1.76 1.76 0 0 1-3.07.67 14.4 14.4 0 0 1-1.07-3.15c.27-.35 3.15-1.05 3.61-1.16zm-13.76 10a11.38 11.38 0 0 0-1.12-.44 1.81 1.81 0 0 1-.76-2.76c.63-.53 1.2-.5 1.72.29.33.61.32.66.47.72a.33.33 0 0 0 .45-.21 4.91 4.91 0 0 0 .07-1.91c-.12-.69-.14-3.75-.12-3.85a1.84 1.84 0 0 0 .95.21c1.81-.07 2.17-1 2.89-1.76.83.08 1 .48 1.94 0a5.54 5.54 0 0 0 1.2-.92 5.83 5.83 0 0 1 .83.42 3.11 3.11 0 0 0 3.63-.69c.11.21.21.42.3.64a8.68 8.68 0 0 0-2.56 1.29c-.17.21.08 1.35.14 1.62a6.77 6.77 0 0 0-2.39.77c-.15-.52-.48-1.49-1-1.76a.82.82 0 0 0-.48 0c-.9.14-4.13 1.11-4.52 1.64-.34.37.63 3.23.93 3.7 1.15 1.78 4.52 1.26 5.15-.82a4.86 4.86 0 0 0 0-2.12c.29 0 1.16-.31 1.26-.34.69 1.55.89 1.64 1.69 3.31-.11.09-.29.24-.44.34-.71.47-.86.39-.82.59a.17.17 0 0 0 .19.12 4.89 4.89 0 0 0 1.22-.34 1 1 0 0 0 .54-.48c.28-.63-1.27-3-1.88-3.71.12 0 .4-.2.61-.31.28 1.12.47 2 1.55 2.44a2.48 2.48 0 0 0 1.94-.08c.16 1.76.13 4.62-.71 6.18-.43.81-1.49 1.12-2.17 1.79-.2.19-.07.46 0 .75 1.11 3.09 1.13 3.08 1.07 3.48a35.87 35.87 0 0 1-1.23 4.9c-.25-.11-3.06-1.6-8.56-3.74-.17-1.13-1.08-7.16-1.37-8.27.02-.39-.03-.48-.61-.74zm7-4.08c-.32 1.09-1.83 1.56-2.91 1.26s-1.15-.85-1.66-2.15a5.65 5.65 0 0 1-.49-1.57c.33-.36 3.94-1.1 4.39-1.17a5.4 5.4 0 0 1 .67 3.58zM62.45 97.15c-.38.37.13 1.58.21 2.63 0 .09 0 .48-.06.51-.55.18-1.06-.65-1.37-1.15s-.62-1.18-1.11-1c-1 .47-3.32 3.55-4.23 3.87-.46-.88 2.17-3.39 2.26-3.53a.41.41 0 0 0-.38-.62c-.18 0-.3.16-.58.41a11.57 11.57 0 0 1-2.89 2.06 35.48 35.48 0 0 1 3.09-3.13.43.43 0 0 0 .11-.2s-.21-.53-.62-.32c-.58.32-3.4 1.95-4.29 2.37-.12-.08-.05-.2 0-.32C54 97 57.1 94.9 59 93.57a3.06 3.06 0 0 0 .55-.78 36.82 36.82 0 0 0 4.2 3.37 11.6 11.6 0 0 0-1.3.99zm23.27 9.09c-.22-.14-.38-.27-.41-.45-.55-4.08 2.51-27.2 2.46-28.11a.4.4 0 0 0-.41-.4c-.51 0 .39 0-12.35 12.2-.84.79-7.26 6.93-8.33 7.34-1.47-.11-7-4.52-7.9-5.91C60.52 87.39 81.62 58.43 88.92 54c.56-.34 1.52-.87 2.57-1.43a8.85 8.85 0 0 0 1.17.93c2.32 2.2 5.55 4.94 8 7l-1.91 3.79a.33.33 0 0 0 0 .33c15.51 22.25 15.28 22 15.38 22a107.8 107.8 0 0 1 1.85 15.58c0 1.41 0 1.29.06 1.19s0 .07 0 .07c-2.42 2.64-26.37 5.1-30.32 2.78zM141 73.11c-4.53.63-9.65-.31-10.64-.35a19.71 19.71 0 0 0-3.22-7.41.16.16 0 0 0-.27.17c.58 1.18 2.52 6.27 3 7.51-.15.48 4.52 19.79 3.2 22.39-1.18 2.35-8.05 5.31-10.53 6.16a149.92 149.92 0 0 0-2.4-16.58c.34-2.88-.1-20-.23-26.33a.39.39 0 0 0-.24-.34l-4.49-1.89a65.25 65.25 0 0 0-.45-7.11c11.21 1.94 24.27 8.35 25.36 8.36 1.58 0 13.32-9 15.75-9.36 1.08-.17 5.72 3.88 6.26 5-4.74 6.62-13.07 15.32-16.93 18.33a8.76 8.76 0 0 1-4.17 1.45z"></path><path d="M100.55 35.11a.509.509 0 1 0-1 .19c.2 1 .24 1.23.68 1.23a.5.5 0 0 0 .46-.7c-.03-.16-.12-.63-.14-.72zm3.06 6.62c.65.19 1.27-.12 1.25-.28s0-.08-.88-.41c-.59-.22-1.24-1-1.47-.88s.12.76.2.88a1.73 1.73 0 0 0 .9.69zm18.29-9.5c-1.31 5.49-2.27 10.15-2.43 11.08a3 3 0 0 0-.06 1.24c.53 1.13 7.38 3.36 8.25 2.92s3.13-5.53 5.76-10.78a23.1 23.1 0 0 0 4.81-.35 20.4 20.4 0 0 0 4.84-1.53c3.38-1.56 7.08-8.24 7.58-11.6a17.62 17.62 0 0 0-2.21-10.51c-8.39-14.55-33-6.72-31 9.44a21.22 21.22 0 0 0 4.46 10.09zm6.1 11.91c0 .16-.18.14-1 0a13.73 13.73 0 0 1-4.79-1.53c-.7-.38-.89-.46-.82-.63s.22-.11 1.3.19c.1 0 3.2 1 4.09 1.31 1.15.52 1.22.52 1.22.66zm-.18-16.27a6.23 6.23 0 0 0 3.09-.64 7.94 7.94 0 0 0 2.84.77c-1.68 3.13-5.09 9.51-6.19 12.91l-4.24-1.17c1-2.46 3.21-8.22 4.48-11.87zm-.35-.83a3.45 3.45 0 0 1-2.91-3c-.28-2 1-4.24 2.93-3.71 1.21.33 1.36 1.29 1.15 2.5-.18.88-.83 3.09-1.19 4.17zm2.72-2.4a4.65 4.65 0 0 1 .72-1.83 1.86 1.86 0 0 1 1.74-.92c.74.22 1.06 1.62.45 2.5a7.63 7.63 0 0 1-2.15 1.94 1.63 1.63 0 0 1-.78-1.69zM121 11.93c4.48-5.39 12.91-7.53 19-5.31a14.42 14.42 0 0 1 7.83 6.47 16.81 16.81 0 0 1 2.11 10c-.46 3.11-4 9.57-7.11 11a20.49 20.49 0 0 1-9.07 1.84c-.34 0-.7 0-.83.24-.59 1.2-1.67 3.52-2.73 5.7a15.23 15.23 0 0 0-2.27-.88c1.16-3.32 4.82-9.84 6.56-13a8.8 8.8 0 0 0 4.4-.76 2.21 2.21 0 0 0-.19-4c-1.55-.76-2.94 1.06-3.75 2.59-.22.4-.47.87-.75 1.4a8.78 8.78 0 0 1-2.37-.49 9.13 9.13 0 0 0 2-1.92 2.77 2.77 0 0 0-.1-3.2 1.71 1.71 0 0 0-2.24-.31 4.27 4.27 0 0 0-2 4.18 2.3 2.3 0 0 0 .71 1.19 5.26 5.26 0 0 1-2.07.4c.4-1.18 1.05-3.31 1.22-4.18a4.59 4.59 0 0 0 .07-1.51 2.28 2.28 0 0 0-1.69-1.81c-2.43-.69-4.22 2-3.87 4.51a4.21 4.21 0 0 0 3.42 3.68C126 31.36 124 37.17 123 39.65l-2.2-.57c1.41-7.08 1.58-6.91 1.38-7a20.59 20.59 0 0 1-4.21-10A13 13 0 0 1 121 11.93zm13.88 15.35c.7-1.27 2.1-4.05 3.46-3.37a1.61 1.61 0 0 1 1 1.33c-.02 1.76-2.76 2.07-4.5 2.04zm38.28 4.41a5.71 5.71 0 0 1 4-.68 5.9 5.9 0 0 1 5.79 5.67 4.56 4.56 0 0 0-3-.56c-2.51.22-5.79 1.58-5.35 4 .36 2 3 1.73 5 1.19s3.59-1.52 4-3.45c2.43 1.77 3 4.87 3.1 7.9a.16.16 0 0 0 .32 0c.07-3.39-.54-6.71-3.31-8.64a6.42 6.42 0 0 0-6.51-6.63 6 6 0 0 0-4 .82c-.37.18-.2.45-.04.38zm9.12 7.17c-1.13 1.48-4.33 2.25-5.81 2-.55-.09-1-.32-1.12-.89-.36-2 3.09-3.09 5.15-3.16a3.82 3.82 0 0 1 2.38.61 3.14 3.14 0 0 1-.6 1.44zM168.58 20c1.07-1.32.35-3.62-2.64-3.63-1.16 0-1.72 1.18-1.64 2.31.18 2.69 3.21 2.61 4.28 1.32zM165 18.63c0-.66.31-1.52 1-1.51 1.61 0 2.35.75 2.35 1.58-.04 1.89-3.48 2.87-3.35-.07zM164.59 132c-8.79-3.51-12.87 13.48-20.05 28.08a8.67 8.67 0 0 0 .06 1.84c0 1.53.17 11.66 1.06 12.81.24.46 1.25 0 1.72-.29a78.41 78.41 0 0 0 11.24-8.44.33.33 0 0 0 .08-.25c1.86-2.65 8.83-16.45 10.52-23.37 1.18-4.9.01-8.55-4.63-10.38zm3.14 12.7a37.69 37.69 0 0 1-13.41-4.38c2.34-4.43 5.23-9.48 10-7.58 5.31 2.11 5.2 6.48 3.41 11.93zm-16.64 26a5.25 5.25 0 0 0-1-.66 6 6 0 0 0-4.37-.42c-.1-1.19-.67-8.93-.67-9 7.49 2.74 5.18 1.55 12.6 5.24-.78.74-3.71 2.79-6.56 4.82zm5.16-28.94a33.47 33.47 0 0 0 3 1.45 87.44 87.44 0 0 0-6.06 11.26c-1.68 3.51-1.62 3.49-3.33 7.32-1-.32-2-.62-3-.92 1.08-2.15 8.76-17.87 9.39-19.13zm-6 20.13c3.25-5.83 6.56-13.08 9.4-18.55 1 .42 2 .76 3 1.06-.53 1-2.08 3.66-2.49 4.43s-4.52 8.87-4.81 9.49c-.46 1-1.72 3.79-2.11 4.68-1.02-.45-2-.79-3.03-1.13zm3.35 1.24c.61-1.11 3.12-5.77 3.43-6.37.47-.93 5.71-11.64 6-12.26.92.26 1.89.48 2.51.6-1.83 5-7.1 14.63-9 19.38-1.73-.81-2.12-1.01-2.98-1.37zm.61-22.52 1.79 1a142.68 142.68 0 0 0-9.4 19.16l-1.5-.46c5.81-12.38 6.08-14 9.07-19.72zm4.12 24.74-1.51-.72c1.63-3.2 6.73-11.41 9.06-19.46.56.1 1.11.19 1.64.26a145 145 0 0 1-9.23 19.9zM127 171.84a2.47 2.47 0 0 0 .73-2.79 3.09 3.09 0 0 0-6-.6c-1.28-.83-2.67-1.71-4-2.55 1-1.33 3.94-.74 4.24.35a.162.162 0 0 0 .32-.05c-.15-1.74-3.77-2.76-5.23-.71-1.29-.79-2.89-1.75-4.23-2.48 1.15-1 3.72-.44 4 .6a.16.16 0 0 0 .31-.06c-.13-1.62-3.48-2.71-5-.93a11.37 11.37 0 0 0-2-.88.71.71 0 0 0-.76.14c-2.53 3.15-11.06 11.33-15 12.28a.57.57 0 0 0-.36.92 12.45 12.45 0 0 0 2.94 2.21c-1 1-1.78 1.9-2.36 2.55-.3.32-.46 6.44-.2 7.79a.57.57 0 0 0 .24.32c1.26.86 17.49 7.88 19.15 6.94 1.11-.63 14.36-14.42 14.57-14.84.32-.66.21-5.06.19-6.82-.08-.53-1.07-1.1-1.55-1.39zm-32 13.21v-2.23c4.15 2 13.65 6.08 17.25 7.22.92.3 1 .26 1.48 0 2.75-1.76 12.46-12.7 14.24-14.37v2.11c-5.4 5.41-14.57 14.89-14.74 14.35-.99-.06-17.37-6.68-18.23-7.08zm31.75-16.58a4 4 0 0 1 .56 2 1.46 1.46 0 0 1-.59 1.15c-.84-.56-2.43-1.6-4.31-2.82 1.03-2.03 3.32-2.06 4.3-.33zm-32 6.4c4.26-1.26 12.35-9.06 15.07-12.44a8.68 8.68 0 0 1 1.88.77c-1 1.86.07 3.9.45 3.61.21-.16-.17-.22-.23-1.2a4.11 4.11 0 0 1 .47-2.06c1.38.72 3 1.66 4.37 2.45-.84 1.87.17 3.72.52 3.45s-.16-.21-.22-1.19a4.21 4.21 0 0 1 .36-1.87c1.41.83 2.85 1.69 4.17 2.5a3.36 3.36 0 0 0 .28 3.08.164.164 0 0 0 .26-.2 2.93 2.93 0 0 1 .05-2.52c2.33 1.42 4.21 2.61 4.79 3-.11.1-10.54 9.38-14.09 12.14-2.33-.61-14.56-6.68-18.13-9.52zm.38 5.57c4.53 2 14.82 6.64 17.19 7.09.41.08.57.11 1.35-.51 3.33-2.67 14.16-14 14.26-13.88a.28.28 0 0 1 0 .09v2c-2.23 1.79-14.63 14.81-14.83 14.19-1 0-17.25-6.63-18.08-7-.02-.42.07-1.54.11-1.98zm18.21 13.78c-1 .57-16.23-5.62-18.27-6.88a15.41 15.41 0 0 1-.11-1.92c4.38 2.16 17.12 7.54 18.29 7.49 1.71-.09 13.8-13.7 14.66-14.65a6.5 6.5 0 0 1-.15 1.52c-.17.33-13.76 14.07-14.42 14.44zm-82.85-56.37c.07 1.07.12 2 .12 2.87a.5.5 0 0 0 .5.5.5.5 0 0 0 .5-.5c0-.93-.05-1.85-.12-2.94a.501.501 0 0 0-1 .07zm152.37-20.05a.49.49 0 0 0-.46.53c.06.92.12 1.91.12 2.87a.5.5 0 0 0 .5.5.5.5 0 0 0 .5-.5c0-1-.06-2-.13-2.94a.49.49 0 0 0-.53-.46zM27.9 135.36a.5.5 0 0 0 0-1c-1.21 0-2.22.09-3.22.07a.51.51 0 0 0-.51.5.5.5 0 0 0 .5.5c1.03.02 2.16-.02 3.23-.07zm151.86-20.52c-1.2 0-2.21.07-3.22.08a.5.5 0 0 0 0 1c1.08 0 2.2 0 3.28-.08a.5.5 0 0 0-.06-1zM30.22 129.18c.06.92.12 1.91.12 2.87a.51.51 0 0 0 .5.5.5.5 0 0 0 .5-.5c0-1-.06-2-.12-2.94a.501.501 0 0 0-1 .07zm153.03-16.65c0-1-.06-2-.13-2.94a.501.501 0 1 0-1 .07c.06.92.12 1.91.12 2.87a.5.5 0 0 0 .5.5.51.51 0 0 0 .51-.5zM37.6 135.23a.5.5 0 0 0 .48-.52.52.52 0 0 0-.52-.48c-1.21.05-2.22.09-3.23.07a.5.5 0 0 0 0 1c1.07.02 2.19-.02 3.27-.07zm151.86-20.52c-1 .05-2.11.08-3.22.08a.49.49 0 0 0-.51.49.51.51 0 0 0 .5.51c1.14 0 2.06 0 3.27-.08a.5.5 0 0 0 .48-.52.53.53 0 0 0-.52-.48zM14.62 105.6c.13.1 28.33-4.08 29.54-4.82a.49.49 0 0 0 .2-.43c0-1.29-1.69-13.4-2.5-16.42-.1-.37-.2-.74-.43-.87-1.53-.92-28.49 4.16-30.1 5.2a.36.36 0 0 0-.17.24c-.34 1.21 2.59 16.5 3.46 17.1zm-2.85-16.86c1.92-.87 26.39-5.35 29.19-5 .68 1.75 2.5 14.57 2.62 16.45-1.39.41-28.58 5.08-28.68 5.1s-.11.14-.32-.49c-.88-2.64-2.86-13.8-2.81-16.06z"></path><path d="M46.36 101.67a.6.6 0 0 0 .07-.33c0-1.59-2.28-19.24-3.09-20.65a.69.69 0 0 0-.61-.33c-3.35-.41-31.61 5.11-33.47 6.4-.26.18-.22.63-.19 1.11.16 2.63 3 19.93 4 19.83.11 0 .07-.08-.19.45-1.56 3.21-4.52 13.49-4.46 15.56 0 .87.2 2 1.06 1.94 6.17-.76 36.42-5.56 45.12-7.35.34-.07.56-.38.55-.89a7 7 0 0 0-.76-2.43c-1.22-2.29-6.28-11.36-8.03-13.31zm-33.23 5.72c-.78-1-3.65-18.23-3.43-20.14 2.2-1.14 30.08-6.53 33-6.09.8 2.2 2.87 18.09 3 20-3.54 1.22-28.05 5.18-32.57 6.23zm.44.3c.84-.21 29.45-5 32.07-5.69 1.43 1.33 7.89 12.82 8.31 13.8-5.74 1-39.79 6.69-44.8 7.45.07-3.03 3.18-13.62 4.42-15.56z"></path><path d="M17.33 118.06c.87-.13 19.33-2.35 26-4.16a.16.16 0 0 0-.08-.31c-1.31.27-17.29 2.4-25.94 4.16a.16.16 0 1 0 .02.31zm13.49-69.58a19.79 19.79 0 0 0-.94 2.6.57.57 0 0 0 .11.4C31 53 41.35 64.67 44.05 66.31c.37.23.81.39 1.08.06a18.14 18.14 0 0 1 7.43-5.49 24.51 24.51 0 0 1 7.36-1.39c2-.18 2.35-.38 3.12-1.69a16.58 16.58 0 0 1 3.56-4.58 28.13 28.13 0 0 1 6.09-4.06.51.51 0 0 0 .24-.58 10.81 10.81 0 0 0-1.33-2.42c.36-.12.76-.23.76-.59 0-1-8.72-13.62-11.14-16-.25-.25-.61-.58-.94-.56-5 .28-9.87 5-12.69 9.12-3.23-.12-5.32-.41-9 1.14a20.5 20.5 0 0 0-6.88 4.78c-.3.31-2.34 2.47-2.37 2.64s.03.17 1.48 1.79zm40-.28c-4.17.71-6.83 4.18-8.79 7.95-.87 1.68-.79 1.76-1.71 1.74a25.72 25.72 0 0 0-4.82.18 18.38 18.38 0 0 0-3.44.86c-2.54.9-5.45 3.78-7 5.92a.39.39 0 0 1-.58.05c-3.25-3.35-9-9.23-11.89-12.61-.14-.15.1-.37.24-.21 1.87 2 6.7 6.79 11.88 12 1.75-2.23 4.45-4.93 7.12-5.87a18.61 18.61 0 0 1 4.51-1 28.59 28.59 0 0 1 4.33 0c.59-.68 3.51-8.4 10.13-9.26a.16.16 0 0 1 .01.25zM60.27 29.82c2 1.4 10.14 13.45 11.2 15.56a28.63 28.63 0 0 0-5.3 2.29 12 12 0 0 0-6.34 8.14c-3.59-5.84-8.6-12.27-11.93-17 .2-.13 5.82-8.6 12.37-8.99zm-21.46 10c3.65-1.47 5.67-1.13 8.69-1 3 5.12 8.39 12.34 11.94 17.07a13.53 13.53 0 0 0-9.67 1.33c-1.77 1-3.93 3.4-5.26 4.89-1.92-1.54-13-13.34-14.78-15.34 2.74-3.1 5.27-5.43 9.08-6.99zm-18.3 25.43a1.56 1.56 0 0 0-1.7-.06 1.571 1.571 0 1 0 1.28 2.87 1.52 1.52 0 0 0 .42-2.81zm-.66 2c-.7.22-1.12 0-1.29-.34-.32-.71.08-1.8 1.12-1.48.73.27 1.32 1.5.17 1.87zm51.51-47.76c.29.59 1.64.37 2.23.18.31-.1.51-.21.54-.51.09-.75.19-7.25-.15-7.88a.38.38 0 0 0-.37-.2 10.81 10.81 0 0 0-3.15.46c-.41.25.54 7.29.9 7.95zm-.69-7.71a14.64 14.64 0 0 1 2.79-.13c.06.74-.1 7.15-.11 7.25a3 3 0 0 1-1.32.16c-.07-.23-.19-.85-.34-1.63a53.63 53.63 0 0 1-1.02-5.65zM19.54 56.81a.68.68 0 0 0 .62 0 2.28 2.28 0 0 0 .88-1 .41.41 0 0 0-.06-.4c-.48-.57-5.72-6.64-6.36-6.26a18.27 18.27 0 0 0-2.23 1.7.27.27 0 0 0-.09.2c-.02.52 5.8 5.18 7.24 5.76zm-4.8-7.4c.73.53 3.19 3.57 5.47 6.26a1.77 1.77 0 0 1-.36.41A62.05 62.05 0 0 1 13 51a17 17 0 0 1 1.74-1.59zm15.71-22.06c.22-3.88 2.48-5.68 4.84-6.14-.67 2.46-.56 5.66 1.87 6.07 1.16.19 1.73-.41 2.57-1.11 3.59-3 .69-6-3.36-5.79 1.51-4.14 5-7.51 9.63-7.62a.16.16 0 0 0 0-.32c-5-.1-8.93 3.5-10.48 8-2.67.46-5.32 2.46-5.39 6.85a.163.163 0 1 0 .32.06zm5.69-6.26c1.49-.1 3.71.36 4.32 1.71.35.77 0 1.72-1.24 2.76a4.9 4.9 0 0 1-1.14.85c-1.5.64-3.16-1.21-1.94-5.32zM39 162.52a7.5 7.5 0 0 0-9.23 5.48A7.797 7.797 0 0 0 45 171.35a7.52 7.52 0 0 0-6-8.83zm3.09 8.15a6.91 6.91 0 0 1-7.34 5.2 6.88 6.88 0 0 1-4.24-7.77 7 7 0 0 1 7.38-5.42 7 7 0 0 1 4.16 7.99z"></path><path d="M52.32 165.37a5.39 5.39 0 0 0-2.71-.21 13.85 13.85 0 0 0-1.38-2.45c.65-.59 2.43-2.23 2-3a22.08 22.08 0 0 0-5.38-4.65 7.36 7.36 0 0 0-2.75-.89c-.64.09-2.16 2.58-2.5 3.14-.22 0-1-.25-1.06-.28 0-.72-.21-3.32-.86-3.62a10.27 10.27 0 0 0-2.25-.55c-.71-.11-7.1 1.06-7.57 1.92-.31.58.41 2.77.62 3.38a13.22 13.22 0 0 0-1.55 1c-1 .71-.73.68-.91.6a2.21 2.21 0 0 0-.69-.2 4 4 0 0 0-2.65-.5c-.92.3-3.09 5.24-3.44 6.51a2 2 0 0 0-.09 1c.24.66 1.84 1.19 2.51 1.4a13.63 13.63 0 0 0 0 3.88c-.88.24-2.71.78-2.61 1.68s2.44 6.84 3.41 7.31a4.37 4.37 0 0 0 3.52.33 8.21 8.21 0 0 0 .94-.55c.4.3.82.57 1.25.83-.31.77-1 2.49-.78 3.27.11.41.44.54.9.71 1.27.46 8.11 2.1 9.15 1.92.39-.06.6-.47.72-.86a13.4 13.4 0 0 0 .39-2.71 15.23 15.23 0 0 0 1.53-.23 5.77 5.77 0 0 0 1.17 1.45c.51.36.94.18 1.52-.19.28.36.7.86 1.15.91 1.13.13 5.8-4.27 6.28-5.17.4-.75-1.06-2.09-1.71-2.68a13.65 13.65 0 0 0 1.64-3.42 11.56 11.56 0 0 0 2.18.12c.33 0 .71-.12.85-.43.61-1.39.43-6.66 0-8-.06-.39-.51-.65-.84-.77zm.24.92c.34 1.3.45 6.21-.05 7.48a9 9 0 0 1-2.59-.12.37.37 0 0 0-.42.27 12.83 12.83 0 0 1-1.83 3.78.37.37 0 0 0 .06.51 7.48 7.48 0 0 1 1.76 2c-.5.82-4.41 4.4-5.49 4.7-.16 0-.6-.6-.71-.76a15.85 15.85 0 0 1-1-1.73.39.39 0 0 0-.49-.19c-2.9 1.09-4 .45-4 1.17a9.85 9.85 0 0 1-.52 3.17 31.83 31.83 0 0 1-6.9-1.54 9 9 0 0 1 .88-3.07c.3-.67-.9-.48-3.14-2.76a.39.39 0 0 0-.53 0c-1 .82-2.3 1.62-2.56 1.49-.51-.25-2.86-5.58-3-6.66a6.19 6.19 0 0 1 2.37-1 .39.39 0 0 0 .28-.43 12.55 12.55 0 0 1 0-4.28.35.35 0 0 0-.26-.4 9.22 9.22 0 0 1-2.16-.87c-.22-.16-.2-.15-.18-.32a21.45 21.45 0 0 1 3.07-6.53c.54-.15 2 .92 2.5 1.3a.28.28 0 0 0 .39 0 13.18 13.18 0 0 1 1.48-1.32c1.52-1.15 1.93-1 1.8-1.4a8.43 8.43 0 0 1-.76-3.19 1.77 1.77 0 0 1 .52-.3 20.71 20.71 0 0 1 2.87-.9 16.65 16.65 0 0 1 3.63-.59c.21.09.4 1 .45 1.28.37 2 .12 2.41.41 2.44 2.85.28 3.43 1.07 3.63.72a17.46 17.46 0 0 1 1.93-2.73c.21-.21.2-.31.83.05a22.34 22.34 0 0 1 5 4.47c.15.26-1.15 1.64-2.1 2.45-.33.29.14.42 1 2.06s.66 2.1 1.12 2a9.55 9.55 0 0 1 2.71-.25zm138.79-83.56a26.26 26.26 0 0 0-6.54-1.73c-1.64-.26-3.57-.52-5.2-.73 1.57-2.22 6.22-7.84 7-9.21.22-.37-.2-.89-.51-1.2-1.74-1.86-5.1-2.56-7.68-2.96-1.48-.24-7.66-1-8.71-.5-1.26.6-10.58 14.6-10.86 16.73 0 .36.12.5.47.63 1.47.54 8.1 1.38 9.58 1.73-2 3.5-10.89 15.33-11.76 17-.21.42-.08.67.17.75a18.89 18.89 0 0 0 2.77.86c.36.11 1.15-.38 2.3-1.08 5.16-3.1 27.3-17.72 29-19.61a.45.45 0 0 0-.03-.68zm-21.49 12c-8.5 5.61-11.37 7.25-11.47 7.32 1.37-2.09 9.88-13.75 11.34-16.54a.4.4 0 0 0-.27-.56c-1-.36-8.28-1.14-10-1.75.22-1.86 9.3-15.92 10.4-16.48s11.77.71 13.77 2.14c-1.05 2.05-6.85 9.23-7.79 10.9-.19.34-.25.67.12.76s9.77 1.19 11.82 1.86c-2.5 2.09-15.12 10.47-17.92 12.31zm-64.15-61.14c0 .09.06.2.21.78a.51.51 0 0 0 .62.34.5.5 0 0 0 .34-.62c-.1-.39-.19-.72-.25-.88a.5.5 0 0 0-.92.38z"></path></g></g></g></svg>