<svg xmlns="http://www.w3.org/2000/svg" fill="none" viewBox="0 0 24 24"><path fill="#000000" d="M1 19c15.617 6.062 20.038-5.025 19.905-10.5C22.173 8.156 23 7.292 23 6.406c-1.048.55-1.595.394-2.119 0 1.128-.768 1.071-1.863 1.071-2.619-.527.277-1.503.96-2.619 1.048-.745-1.166-2.619-2.095-5.238-1.048-2.619 1.048-3.143 3.842-2.619 5.238-3.352 0-7.333-3.492-8.905-5.238-1.883 2.688.5 5.353 1.572 6.286-.715.214-1.572 0-2.095-.524 0 2.991 2.619 4.19 3.666 4.715H3.62c0 2.095 2.444 2.968 3.667 3.142-.838.838-4.215 1.596-6.286 1.596Z"></path></svg>